<?xml version="1.0" encoding="utf-8"?>
<!-- Generator: Adobe Illustrator 24.2.3, SVG Export Plug-In . SVG Version: 6.00 Build 0)  -->
<svg version="1.1" id="Layer_1" xmlns="http://www.w3.org/2000/svg" xmlns:xlink="http://www.w3.org/1999/xlink" x="0px" y="0px"
	 viewBox="0 0 1516 300" style="enable-background:new 0 0 1516 300;" xml:space="preserve">
<style type="text/css">
	.st0{fill:#016FD0;}
	.st1{fill:#FFFFFF;}
	.st2{fill:#1434CB;}
	.st3{fill:url(#path6338_1_);}
	.st4{fill:url(#path6349_1_);}
	.st5{fill:url(#path6360_1_);}
	.st6{fill:url(#path6371_1_);}
	.st7{fill:url(#path6384_1_);}
	.st8{fill:#E2E2E2;stroke:#000000;stroke-width:0.25;stroke-miterlimit:10;}
	.st9{fill:#FF5A00;}
	.st10{fill:#EB001B;}
	.st11{fill:#F79E1B;}
	.st12{fill:#0079BE;}
	.st13{fill:#E5E5E5;stroke:#000000;stroke-width:0.25;stroke-miterlimit:10;}
	.st14{fill:#F1F1F1;stroke:#050505;stroke-width:0.5;stroke-miterlimit:10;}
	.st15{fill:url(#XMLID_9_);}
	.st16{opacity:0.65;fill:url(#XMLID_10_);enable-background:new    ;}
</style>
<g id="layer1" transform="translate(-55.5,-1002.3452)">
	<path id="path3078" class="st0" d="M77.24,1087.33h127.94v69.07l-6.33,9.9l6.33,8.81v40.17H77.24v-65.11l3.96-4.55l-3.96-4.35
		V1087.33z"/>
	<path id="path3082" class="st1" d="M102.07,1176.49v-20.09h21.27l2.28,2.97l2.36-2.97h77.2v18.7c0,0-2.02,1.37-4.35,1.39h-42.75
		l-2.57-3.17v3.17h-8.43v-5.41c0,0-1.15,0.75-3.64,0.75h-2.87v4.65H127.8l-2.28-3.04l-2.31,3.04H102.07z"/>
	<path id="path3080" class="st1" d="M77.24,1141.26l4.8-11.18h8.29l2.72,6.26v-6.26h10.31l1.62,4.53l1.57-4.53h46.28v2.28
		c0,0,2.43-2.28,6.43-2.28l15.02,0.05l2.67,6.18v-6.23h8.63l2.37,3.55v-3.55h8.71v20.09h-8.71l-2.28-3.56v3.56h-12.68l-1.27-3.17
		h-3.41l-1.25,3.17h-8.6c-3.44,0-5.64-2.23-5.64-2.23v2.23h-12.96l-2.57-3.17v3.17H89.1l-1.27-3.17h-3.4l-1.26,3.17h-5.93V1141.26z"
		/>
	<path id="path3046" class="st0" d="M83.73,1132.55l-6.47,15.04h4.21l1.19-3.01h6.94l1.19,3.01h4.3l-6.46-15.04H83.73L83.73,1132.55
		z M86.12,1136.05l2.12,5.26H84L86.12,1136.05z"/>
	<path id="path3048" class="st0" d="M95.54,1147.59v-15.04l5.98,0.02l3.48,9.7l3.4-9.72h5.94v15.04h-3.76v-11.08l-3.99,11.08h-3.3
		l-4-11.08v11.08H95.54z"/>
	<path id="path3050" class="st0" d="M116.92,1147.59v-15.04h12.27v3.36h-8.47v2.57h8.27v3.17h-8.27v2.67h8.47v3.27L116.92,1147.59z"
		/>
	<path id="path3052" class="st0" d="M131.36,1132.55v15.04h3.76v-5.34h1.58l4.51,5.34h4.6l-4.95-5.54c2.03-0.17,4.13-1.91,4.13-4.62
		c0-3.17-2.48-4.88-5.26-4.88H131.36L131.36,1132.55z M135.12,1135.92h4.3c1.03,0,1.78,0.81,1.78,1.58c0,1-0.97,1.58-1.73,1.58
		h-4.35V1135.92L135.12,1135.92z"/>
	<path id="path3054" class="st0" d="M150.36,1147.59h-3.84v-15.04h3.84V1147.59z"/>
	<path id="path3056" class="st0" d="M159.47,1147.59h-0.83c-4.01,0-6.44-3.16-6.44-7.46c0-4.41,2.41-7.58,7.47-7.58h4.16v3.56h-4.31
		c-2.06,0-3.51,1.6-3.51,4.06c0,2.91,1.66,4.14,4.06,4.14h0.99L159.47,1147.59z"/>
	<path id="path3058" class="st0" d="M167.65,1132.55l-6.47,15.04h4.21l1.19-3.01h6.94l1.19,3.01h4.3l-6.46-15.04H167.65
		L167.65,1132.55z M170.04,1136.05l2.12,5.26h-4.24L170.04,1136.05L170.04,1136.05z"/>
	<path id="path3060" class="st0" d="M179.45,1147.59v-15.04h4.78l6.1,9.45v-9.45h3.76v15.04h-4.63l-6.26-9.7v9.7H179.45z"/>
	<path id="path3062" class="st0" d="M104.65,1173.91v-15.04h12.27v3.36h-8.47v2.57h8.27v3.17h-8.27v2.67h8.47v3.27L104.65,1173.91z"
		/>
	<path id="path3064" class="st0" d="M164.77,1173.91v-15.04h12.27v3.36h-8.47v2.57h8.23v3.17h-8.23v2.67h8.47v3.27L164.77,1173.91z"
		/>
	<path id="path3066" class="st0" d="M117.39,1173.91l5.97-7.43l-6.12-7.61h4.74l3.64,4.71l3.66-4.71h4.55l-6.04,7.52l5.99,7.52
		h-4.74l-3.54-4.63l-3.45,4.63H117.39z"/>
	<path id="path3068" class="st0" d="M134.23,1158.87v15.04h3.86v-4.75h3.96c3.35,0,5.89-1.78,5.89-5.23c0-2.86-1.99-5.06-5.4-5.06
		H134.23L134.23,1158.87z M138.09,1162.28h4.17c1.08,0,1.86,0.66,1.86,1.73c0,1-0.77,1.73-1.87,1.73h-4.16V1162.28L138.09,1162.28z"
		/>
	<path id="path3072" class="st0" d="M149.57,1158.87v15.04h3.76v-5.34h1.58l4.51,5.34h4.6l-4.95-5.54c2.03-0.17,4.13-1.91,4.13-4.62
		c0-3.17-2.48-4.88-5.26-4.88H149.57L149.57,1158.87z M153.33,1162.24h4.3c1.03,0,1.78,0.81,1.78,1.58c0,1-0.97,1.58-1.73,1.58
		h-4.35V1162.24z"/>
	<path id="path3074" class="st0" d="M178.78,1173.91v-3.27h7.53c1.11,0,1.6-0.6,1.6-1.26c0-0.63-0.48-1.27-1.6-1.27h-3.4
		c-2.96,0-4.6-1.8-4.6-4.5c0-2.41,1.51-4.74,5.9-4.74h7.32l-1.58,3.38h-6.33c-1.21,0-1.58,0.64-1.58,1.24
		c0,0.62,0.46,1.31,1.39,1.31h3.56c3.3,0,4.72,1.87,4.72,4.32c0,2.63-1.59,4.79-4.9,4.79H178.78z"/>
	<path id="path3076" class="st0" d="M192.58,1173.91v-3.27h7.53c1.11,0,1.6-0.6,1.6-1.26c0-0.63-0.48-1.27-1.6-1.27h-3.4
		c-2.96,0-4.6-1.8-4.6-4.5c0-2.41,1.51-4.74,5.9-4.74h7.32l-1.58,3.38h-6.33c-1.21,0-1.58,0.64-1.58,1.24
		c0,0.62,0.46,1.31,1.39,1.31h3.56c3.3,0,4.72,1.87,4.72,4.32c0,2.63-1.59,4.79-4.9,4.79H192.58z"/>
</g>
<path id="path3789" class="st2" d="M293,119c-12.37,0-23.42,6.41-23.42,18.26c0,13.58,19.6,14.52,19.6,21.35
	c0,2.87-3.29,5.45-8.92,5.45c-7.98,0-13.95-3.59-13.95-3.59l-2.55,11.95c0,0,6.87,3.04,16,3.04c13.52,0,24.17-6.73,24.17-18.77
	c0-14.35-19.69-15.26-19.69-21.6c0-2.25,2.7-4.72,8.31-4.72c6.33,0,11.49,2.61,11.49,2.61l2.5-11.54
	C306.54,121.42,300.92,119,293,119L293,119z M179.83,119.87l-0.3,1.74c0,0,5.2,0.95,9.89,2.85c6.03,2.18,6.46,3.45,7.48,7.39
	l11.08,42.69h14.85l22.87-54.67h-14.81l-14.7,37.17l-6-31.51c-0.55-3.61-3.34-5.66-6.75-5.66
	C203.44,119.87,179.83,119.87,179.83,119.87z M251.65,119.87l-11.62,54.67h14.12l11.58-54.67H251.65L251.65,119.87z M330.43,119.87
	c-3.41,0-5.21,1.82-6.53,5.01l-20.69,49.66h14.81l2.87-8.28h18.05l1.74,8.28h13.07l-11.4-54.67H330.43L330.43,119.87z
	 M332.36,134.64l4.39,20.52h-11.76L332.36,134.64L332.36,134.64z"/>
<g id="g6321" transform="translate(-9.4000001,96.810998)">
	<g id="g6323" transform="matrix(1.8215159,0,0,1.8215159,-8.5437653,-109.83667)">
		<path id="path6325" class="st1" d="M331.04,115.13c0,8.92-7.26,16.18-16.18,16.18h-88.01V67.25c0-8.92,7.26-16.18,16.18-16.18
			h88.01V115.13L331.04,115.13z"/>
		<g id="g6327">
			
				<linearGradient id="path6338_1_" gradientUnits="userSpaceOnUse" x1="268.9866" y1="194.6136" x2="294.4236" y2="194.6136" gradientTransform="matrix(2.0492 0 0 -2.0492 -254.5008 494.4507)">
				<stop  offset="0" style="stop-color:#007940"/>
				<stop  offset="0.2285" style="stop-color:#00873F"/>
				<stop  offset="0.7433" style="stop-color:#40A737"/>
				<stop  offset="1" style="stop-color:#5CB531"/>
			</linearGradient>
			<path id="path6338" class="st3" d="M302.39,98.7h6.69c0.19,0,0.64-0.06,0.83-0.06c1.27-0.25,2.36-1.4,2.36-2.99
				c0-1.53-1.08-2.67-2.36-2.99c-0.19-0.06-0.57-0.06-0.83-0.06h-6.69V98.7L302.39,98.7z"/>
			
				<linearGradient id="path6349_1_" gradientUnits="userSpaceOnUse" x1="268.9861" y1="196.7734" x2="294.402" y2="196.7734" gradientTransform="matrix(2.0492 0 0 -2.0492 -254.5008 494.4507)">
				<stop  offset="0" style="stop-color:#007940"/>
				<stop  offset="0.2285" style="stop-color:#00873F"/>
				<stop  offset="0.7433" style="stop-color:#40A737"/>
				<stop  offset="1" style="stop-color:#5CB531"/>
			</linearGradient>
			<path id="path6349" class="st4" d="M308.31,56.48c-6.37,0-11.59,5.16-11.59,11.59v12.04h16.37c0.38,0,0.83,0,1.15,0.06
				c3.69,0.19,6.43,2.1,6.43,5.41c0,2.61-1.85,4.84-5.29,5.29V91c3.76,0.25,6.62,2.36,6.62,5.6c0,3.5-3.18,5.79-7.39,5.79h-17.96
				v23.56h17c6.37,0,11.59-5.16,11.59-11.59V56.48L308.31,56.48L308.31,56.48z"/>
			
				<linearGradient id="path6360_1_" gradientUnits="userSpaceOnUse" x1="268.9862" y1="199.1508" x2="294.4243" y2="199.1508" gradientTransform="matrix(2.0492 0 0 -2.0492 -254.5008 494.4507)">
				<stop  offset="0" style="stop-color:#007940"/>
				<stop  offset="0.2285" style="stop-color:#00873F"/>
				<stop  offset="0.7433" style="stop-color:#40A737"/>
				<stop  offset="1" style="stop-color:#5CB531"/>
			</linearGradient>
			<path id="path6360" class="st5" d="M311.43,86.35c0-1.53-1.08-2.55-2.36-2.74c-0.13,0-0.45-0.06-0.64-0.06h-6.05v5.6h6.05
				c0.19,0,0.57,0,0.64-0.06C310.35,88.9,311.43,87.88,311.43,86.35z"/>
		</g>
		
			<linearGradient id="path6371_1_" gradientUnits="userSpaceOnUse" x1="237.7226" y1="196.789" x2="263.5535" y2="196.789" gradientTransform="matrix(2.0492 0 0 -2.0492 -254.5008 494.4507)">
			<stop  offset="0" style="stop-color:#1F286F"/>
			<stop  offset="0.4751" style="stop-color:#004E94"/>
			<stop  offset="0.8261" style="stop-color:#0066B1"/>
			<stop  offset="1" style="stop-color:#006FBC"/>
		</linearGradient>
		<path id="path6371" class="st6" d="M244.25,56.48c-6.37,0-11.59,5.16-11.59,11.59v28.59c3.25,1.59,6.62,2.61,10,2.61
			c4.01,0,6.18-2.42,6.18-5.73v-13.5h9.93v13.44c0,5.22-3.25,9.49-14.26,9.49c-6.69,0-11.91-1.46-11.91-1.46v24.39h17
			c6.37,0,11.59-5.16,11.59-11.59V56.48C261.18,56.48,244.25,56.48,244.25,56.48z"/>
		
			<linearGradient id="path6384_1_" gradientUnits="userSpaceOnUse" x1="253.2801" y1="196.7579" x2="278.3679" y2="196.7579" gradientTransform="matrix(2.0492 0 0 -2.0492 -254.5008 494.4507)">
			<stop  offset="0" style="stop-color:#6C2C2F"/>
			<stop  offset="0.1735" style="stop-color:#882730"/>
			<stop  offset="0.5731" style="stop-color:#BE1833"/>
			<stop  offset="0.8585" style="stop-color:#DC0436"/>
			<stop  offset="1" style="stop-color:#E60039"/>
		</linearGradient>
		<path id="path6384" class="st7" d="M276.28,56.48c-6.37,0-11.59,5.16-11.59,11.59v15.16c2.93-2.48,8.02-4.08,16.24-3.69
			c4.39,0.19,9.11,1.4,9.11,1.4v4.9c-2.36-1.21-5.16-2.29-8.79-2.55c-6.24-0.45-10,2.61-10,7.96c0,5.41,3.76,8.47,10,7.96
			c3.63-0.25,6.43-1.4,8.79-2.55v4.9c0,0-4.65,1.21-9.11,1.4c-8.21,0.38-13.31-1.21-16.24-3.69v26.75h17
			c6.37,0,11.59-5.16,11.59-11.59V56.48C293.28,56.48,276.28,56.48,276.28,56.48z"/>
	</g>
	<g id="g6386">
	</g>
</g>
<path id="XMLID_1775_" class="st8" d="M659.55,222.11v-8.78c0-3.36-2.05-5.56-5.56-5.56c-1.76,0-3.66,0.58-4.98,2.49
	c-1.02-1.6-2.49-2.49-4.69-2.49c-1.47,0-2.93,0.44-4.09,2.05v-1.76h-3.07v14.05h3.07v-7.76c0-2.49,1.31-3.66,3.36-3.66
	s3.07,1.31,3.07,3.66v7.76h3.07v-7.76c0-2.49,1.47-3.66,3.36-3.66c2.05,0,3.07,1.31,3.07,3.66v7.76L659.55,222.11L659.55,222.11z
	 M705.06,208.07h-4.98v-4.24h-3.07v4.24h-2.78v2.78h2.78v6.44c0,3.22,1.31,5.11,4.82,5.11c1.31,0,2.78-0.44,3.8-1.02l-0.89-2.64
	c-0.89,0.58-1.91,0.73-2.64,0.73c-1.47,0-2.05-0.89-2.05-2.34v-6.29h4.98v-2.78L705.06,208.07L705.06,208.07z M731.11,207.76
	c-1.76,0-2.93,0.89-3.66,2.05v-1.76h-3.07v14.05h3.07v-7.91c0-2.34,1.02-3.66,2.93-3.66c0.58,0,1.31,0.15,1.91,0.29l0.89-2.93
	C732.56,207.76,731.69,207.76,731.11,207.76L731.11,207.76z M691.75,209.22c-1.47-1.02-3.51-1.47-5.71-1.47
	c-3.51,0-5.85,1.76-5.85,4.53c0,2.34,1.76,3.66,4.82,4.09l1.47,0.15c1.6,0.29,2.49,0.73,2.49,1.47c0,1.02-1.18,1.76-3.22,1.76
	s-3.66-0.73-4.69-1.47l-1.47,2.34c1.6,1.18,3.8,1.76,6,1.76c4.09,0,6.44-1.91,6.44-4.53c0-2.49-1.91-3.8-4.82-4.24l-1.47-0.15
	c-1.31-0.15-2.34-0.44-2.34-1.31c0-1.02,1.02-1.6,2.64-1.6c1.76,0,3.51,0.73,4.4,1.18L691.75,209.22L691.75,209.22z M773.38,207.76
	c-1.76,0-2.93,0.89-3.66,2.05v-1.76h-3.07v14.05h3.07v-7.91c0-2.34,1.02-3.66,2.93-3.66c0.58,0,1.31,0.15,1.91,0.29l0.89-2.9
	C774.85,207.76,773.98,207.76,773.38,207.76L773.38,207.76z M734.18,215.09c0,4.24,2.93,7.31,7.47,7.31c2.05,0,3.51-0.44,4.98-1.6
	l-1.47-2.49c-1.18,0.89-2.34,1.31-3.66,1.31c-2.49,0-4.24-1.76-4.24-4.53c0-2.64,1.76-4.4,4.24-4.53c1.31,0,2.49,0.44,3.66,1.31
	l1.47-2.49c-1.47-1.18-2.93-1.6-4.98-1.6C737.11,207.76,734.18,210.84,734.18,215.09L734.18,215.09L734.18,215.09z M762.56,215.09
	v-7.02h-3.07v1.76c-1.02-1.31-2.49-2.05-4.4-2.05c-3.95,0-7.02,3.07-7.02,7.31c0,4.24,3.07,7.31,7.02,7.31
	c2.05,0,3.51-0.73,4.4-2.05v1.76h3.07V215.09L762.56,215.09z M751.29,215.09c0-2.49,1.6-4.53,4.24-4.53c2.49,0,4.24,1.91,4.24,4.53
	c0,2.49-1.76,4.53-4.24,4.53C752.91,219.47,751.29,217.56,751.29,215.09L751.29,215.09z M714.58,207.76c-4.09,0-7.02,2.93-7.02,7.31
	c0,4.4,2.93,7.31,7.18,7.31c2.05,0,4.09-0.58,5.71-1.91l-1.47-2.2c-1.18,0.89-2.64,1.47-4.09,1.47c-1.91,0-3.8-0.89-4.24-3.36h10.38
	c0-0.44,0-0.73,0-1.18C721.16,210.69,718.51,207.76,714.58,207.76L714.58,207.76L714.58,207.76z M714.58,210.4
	c1.91,0,3.22,1.18,3.51,3.36h-7.31C711.06,211.87,712.38,210.4,714.58,210.4L714.58,210.4z M790.8,215.09v-12.58h-3.07v7.31
	c-1.02-1.31-2.49-2.05-4.4-2.05c-3.95,0-7.02,3.07-7.02,7.31c0,4.24,3.07,7.31,7.02,7.31c2.05,0,3.51-0.73,4.4-2.05v1.76h3.07
	V215.09L790.8,215.09z M779.53,215.09c0-2.49,1.6-4.53,4.24-4.53c2.49,0,4.24,1.91,4.24,4.53c0,2.49-1.76,4.53-4.24,4.53
	C781.14,219.47,779.53,217.56,779.53,215.09L779.53,215.09z M676.82,215.09v-7.02h-3.07v1.76c-1.02-1.31-2.49-2.05-4.4-2.05
	c-3.95,0-7.02,3.07-7.02,7.31c0,4.24,3.07,7.31,7.02,7.31c2.05,0,3.51-0.73,4.4-2.05v1.76h3.07V215.09L676.82,215.09z
	 M665.42,215.09c0-2.49,1.6-4.53,4.24-4.53c2.49,0,4.24,1.91,4.24,4.53c0,2.49-1.76,4.53-4.24,4.53
	C667.02,219.47,665.42,217.56,665.42,215.09z"/>
<g>
	<rect id="rect19" x="691.73" y="103.4" class="st9" width="46.09" height="82.8"/>
	<path id="XMLID_330_" class="st10" d="M694.8,144.8c0-16.82,7.91-31.75,20.04-41.4c-8.93-7.02-20.2-11.27-32.49-11.27
		c-29.11,0-52.67,23.56-52.67,52.67s23.56,52.67,52.67,52.67c12.29,0,23.56-4.24,32.49-11.27
		C702.69,176.69,694.8,161.62,694.8,144.8z"/>
	<path id="path22" class="st11" d="M800,144.8c0,29.11-23.56,52.67-52.67,52.67c-12.29,0-23.56-4.24-32.49-11.27
		c12.29-9.66,20.05-24.58,20.05-41.4s-7.91-31.75-20.05-41.4c8.91-7.02,20.18-11.27,32.47-11.27C776.44,92.13,800,115.84,800,144.8z
		"/>
</g>
<g id="__x0023_Layer_x0020_1">
	<path class="st12" d="M900.85,184.72c21.75,0.11,41.59-17.72,41.59-39.42c0-23.72-19.85-40.13-41.59-40.12h-18.72
		c-22-0.02-40.1,16.4-40.1,40.12c0,21.7,18.1,39.53,40.1,39.42H900.85z"/>
	<path class="st1" d="M882.23,108.46c-20.11,0-36.39,16.3-36.39,36.41s16.29,36.39,36.39,36.41c20.11,0,36.41-16.3,36.41-36.41
		S902.33,108.48,882.23,108.46z M859.15,144.89L859.15,144.89c0.02-9.83,6.15-18.21,14.8-21.54v43.07
		C865.31,163.08,859.17,154.7,859.15,144.89z M890.48,166.41L890.48,166.41v-43.08c8.66,3.33,14.8,11.71,14.82,21.54
		C905.28,154.72,899.14,163.1,890.48,166.41z"/>
	<path class="st13" d="M955.19,122.29c0-3.76-1.96-3.52-3.85-3.55v-1.09c1.63,0.08,3.3,0.08,4.94,0.08c1.75,0,4.13-0.08,7.24-0.08
		c10.83,0,16.73,7.23,16.73,14.65c0,4.15-2.43,14.55-17.23,14.55c-2.13,0-4.1-0.08-6.06-0.08c-1.88,0-3.72,0.05-5.6,0.08v-1.09
		c2.51-0.25,3.72-0.33,3.85-3.19L955.19,122.29L955.19,122.29z M959.27,141.92L959.27,141.92c0,3.22,2.3,3.6,4.36,3.6
		c9.04,0,12.01-6.82,12.01-13.05c0-7.83-5.02-13.46-13.08-13.46c-1.72,0-2.51,0.13-3.27,0.17L959.27,141.92L959.27,141.92z"/>
	<path class="st13" d="M981.7,145.77h0.79c1.17,0,2,0,2-1.39v-11.33c0-1.83-0.63-2.1-2.18-2.92v-0.68c1.97-0.58,4.31-1.37,4.47-1.5
		c0.3-0.17,0.55-0.21,0.76-0.21c0.21,0,0.3,0.25,0.3,0.58v16.07c0,1.39,0.92,1.39,2.1,1.39h0.71v1.09c-1.42,0-2.89-0.08-4.39-0.08
		s-3.01,0.05-4.56,0.08V145.77L981.7,145.77z M986.18,121.29L986.18,121.29c-1.09,0-2.05-1.01-2.05-2.1c0-1.04,1.01-2.02,2.05-2.02
		c1.09,0,2.05,0.88,2.05,2.02C988.23,120.33,987.3,121.29,986.18,121.29z"/>
	<path class="st13" d="M994.62,133.29c0-1.55-0.46-1.96-2.43-2.76v-0.79c1.8-0.58,3.5-1.14,5.52-2c0.13,0,0.25,0.08,0.25,0.41v2.71
		c2.38-1.72,4.43-3.14,7.24-3.14c3.55,0,4.8,2.59,4.8,5.86v10.79c0,1.39,0.92,1.39,2.1,1.39h0.76v1.09c-1.47,0-2.94-0.08-4.43-0.08
		c-1.52,0-3.01,0.05-4.51,0.08v-1.09h0.76c1.17,0,2,0,2-1.39v-10.83c0-2.38-1.45-3.55-3.85-3.55c-1.34,0-3.47,1.09-4.86,2v12.37
		c0,1.39,0.93,1.39,2.1,1.39h0.76v1.09c-1.47,0-2.94-0.08-4.43-0.08c-1.5,0-3.01,0.05-4.51,0.08v-1.09h0.76c1.17,0,2,0,2-1.39
		L994.62,133.29L994.62,133.29z"/>
	<path class="st13" d="M1016.04,135.31c-0.09,0.38-0.09,1.01,0,2.43c0.25,3.98,2.81,7.23,6.14,7.23c2.3,0,4.1-1.25,5.65-2.81
		l0.58,0.58c-1.93,2.56-4.31,4.72-7.73,4.72c-6.66,0-7.99-6.44-7.99-9.12c0-8.21,5.52-10.62,8.44-10.62c3.39,0,7.04,2.13,7.07,6.57
		c0,0.25,0,0.51-0.05,0.76l-0.38,0.25h-11.74V135.31z M1023.44,133.96L1023.44,133.96c1.04,0,1.17-0.54,1.17-1.04
		c0-2.13-1.29-3.85-3.65-3.85c-2.56,0-4.31,1.88-4.81,4.89H1023.44L1023.44,133.96z"/>
	<path class="st13" d="M1029.17,145.77h1.14c1.17,0,2,0,2-1.39v-11.76c0-1.29-1.55-1.55-2.18-1.88v-0.63
		c3.05-1.29,4.73-2.38,5.11-2.38c0.25,0,0.36,0.13,0.36,0.55v3.77h0.09c1.04-1.63,2.81-4.31,5.35-4.31c1.04,0,2.38,0.71,2.38,2.23
		c0,1.14-0.79,2.13-1.96,2.13c-1.31,0-1.31-1.01-2.76-1.01c-0.71,0-3.05,0.96-3.05,3.47v9.83c0,1.39,0.84,1.39,2,1.39h2.34v1.09
		c-2.3-0.05-4.06-0.08-5.86-0.08c-1.72,0-3.47,0.05-4.97,0.08L1029.17,145.77L1029.17,145.77z"/>
	<path class="st13" d="M1045.28,141.03c0.55,2.76,2.21,5.11,5.27,5.11c2.46,0,3.38-1.5,3.38-2.97c0-4.94-9.12-3.35-9.12-10.08
		c0-2.35,1.88-5.35,6.49-5.35c1.34,0,3.14,0.38,4.77,1.22l0.3,4.26h-0.96c-0.41-2.64-1.88-4.13-4.56-4.13
		c-1.67,0-3.27,0.96-3.27,2.76c0,4.89,9.71,3.39,9.71,9.96c0,2.76-2.23,5.7-7.2,5.7c-1.67,0-3.65-0.58-5.1-1.42l-0.46-4.81
		L1045.28,141.03L1045.28,141.03z"/>
	<path class="st13" d="M1095.05,125.22H1094c-0.79-4.89-4.26-6.87-8.95-6.87c-4.81,0-11.81,3.22-11.81,13.26
		c0,8.46,6.03,14.52,12.47,14.52c4.13,0,7.58-2.84,8.41-7.24l0.96,0.25l-0.96,6.11c-1.75,1.09-6.49,2.23-9.25,2.23
		c-9.78,0-15.97-6.31-15.97-15.73c0-8.57,7.65-14.72,15.85-14.72c3.39,0,6.64,1.09,9.86,2.23L1095.05,125.22L1095.05,125.22z"/>
	<path class="st13" d="M1096.56,145.77h0.79c1.17,0,2.02,0,2.02-1.39v-23.29c0-2.71-0.63-2.81-2.23-3.27v-0.66
		c1.67-0.54,3.42-1.29,4.31-1.8c0.46-0.25,0.79-0.46,0.92-0.46c0.25,0,0.35,0.25,0.35,0.58v28.9c0,1.39,0.92,1.39,2.1,1.39h0.71
		v1.09c-1.42,0-2.89-0.08-4.39-0.08c-1.5,0-3.01,0.05-4.56,0.08L1096.56,145.77L1096.56,145.77z"/>
	<path class="st13" d="M1123.41,144.54c0,0.76,0.46,0.8,1.17,0.8c0.51,0,1.14-0.05,1.67-0.05v0.88c-1.8,0.16-5.22,1.04-6.03,1.29
		l-0.21-0.13v-3.38c-2.51,2.05-4.43,3.52-7.4,3.52c-2.26,0-4.59-1.47-4.59-4.97V131.8c0-1.09-0.17-2.13-2.51-2.34v-0.79
		c1.52-0.05,4.85-0.3,5.4-0.3c0.46,0,0.46,0.3,0.46,1.22v10.79c0,1.26,0,4.86,3.63,4.86c1.42,0,3.3-1.09,5.07-2.54v-11.25
		c0-0.84-2-1.29-3.5-1.72v-0.76c3.76-0.25,6.11-0.58,6.52-0.58c0.33,0,0.33,0.3,0.33,0.76V144.54L1123.41,144.54z"/>
	<path class="st13" d="M1131.74,130.74c1.67-1.42,3.93-3.01,6.23-3.01c4.86,0,7.78,4.23,7.78,8.79c0,5.48-4.01,10.97-10.01,10.97
		c-3.09,0-4.72-1.01-5.81-1.47l-1.25,0.96l-0.87-0.46c0.36-2.46,0.58-4.89,0.58-7.45v-17.99c0-2.71-0.63-2.81-2.23-3.27v-0.66
		c1.67-0.54,3.42-1.29,4.31-1.8c0.46-0.25,0.79-0.46,0.92-0.46c0.25,0,0.33,0.25,0.33,0.58V130.74L1131.74,130.74L1131.74,130.74z
		 M1131.74,142.12L1131.74,142.12c0,1.59,1.5,4.28,4.31,4.28c4.48,0,6.36-4.4,6.36-8.11c0-4.51-3.42-8.29-6.69-8.29
		c-1.55,0-2.84,1.01-3.98,1.97V142.12L1131.74,142.12z"/>
	<path class="st13" d="M951.29,171.16h0.32c0.82,0,1.69-0.11,1.69-1.29v-11.93c0-1.18-0.87-1.29-1.69-1.29h-0.32v-0.68
		c0.88,0,2.26,0.09,3.38,0.09c1.14,0,2.49-0.09,3.57-0.09v0.68h-0.32c-0.82,0-1.69,0.11-1.69,1.29v11.93c0,1.18,0.87,1.29,1.69,1.29
		h0.32v0.69c-1.09,0-2.46-0.09-3.6-0.09c-1.12,0-2.46,0.09-3.35,0.09V171.16L951.29,171.16z"/>
	<path class="st13" d="M958.23,171.95c-1.1,0-2.46-0.09-3.6-0.09c-1.1,0-2.45,0.09-3.35,0.09h-0.09v-0.09v-0.68v-0.09h0.09h0.32
		c0.82-0.02,1.58-0.08,1.58-1.2v-11.93c0-1.1-0.76-1.18-1.58-1.2h-0.41v-0.09v-0.79h0.09c0.9,0,2.26,0.09,3.38,0.09
		c1.14,0,2.49-0.09,3.57-0.09h0.09v0.11v0.77h-0.09h-0.32c-0.82,0.02-1.58,0.09-1.58,1.2v11.93c0,1.1,0.76,1.18,1.58,1.2h0.43v0.09
		v0.79L958.23,171.95L958.23,171.95z M958.14,171.76L958.14,171.76v-0.49h-0.22c-0.82,0-1.78-0.14-1.78-1.4v-11.93
		c0-1.26,0.98-1.4,1.78-1.4h0.22v-0.49c-1.06,0-2.37,0.09-3.47,0.09c-1.07,0-2.38-0.08-3.27-0.09v0.49h0.22
		c0.8,0,1.78,0.14,1.78,1.4v11.93c0,1.26-0.98,1.4-1.78,1.4h-0.22v0.49c0.88-0.02,2.16-0.09,3.25-0.09
		C955.74,171.67,957.06,171.75,958.14,171.76L958.14,171.76z"/>
	<path class="st13" d="M973.87,167.37l0.05-0.05v-8.54c0-1.86-1.29-2.15-1.97-2.15h-0.51v-0.68c1.07,0,2.11,0.09,3.19,0.09
		c0.93,0,1.86-0.09,2.81-0.09v0.68h-0.35c-0.96,0-2.02,0.17-2.02,2.89v10.35c0,0.79,0.02,1.59,0.14,2.3h-0.87l-11.74-13.05v9.37
		c0,1.97,0.38,2.67,2.13,2.67h0.38v0.69c-0.98,0-1.96-0.09-2.94-0.09c-1.03,0-2.07,0.09-3.09,0.09v-0.69h0.32
		c1.58,0,2.05-1.07,2.05-2.89v-9.6c0-1.28-1.06-2.05-2.07-2.05h-0.3v-0.68c0.87,0,1.75,0.09,2.62,0.09c0.68,0,1.34-0.09,2.02-0.09
		L973.87,167.37L973.87,167.37z"/>
	<path class="st13" d="M975.18,172.3l-0.93-0.03l-11.55-12.88v9.12c0.03,1.97,0.33,2.54,2.04,2.56h0.49v0.09v0.79h-0.09
		c-0.98,0-1.97-0.09-2.94-0.09c-1.03,0-2.07,0.09-3.09,0.09H959v-0.09v-0.79h0.09h0.32c1.5,0,1.94-0.98,1.96-2.79v-9.58
		c0-1.22-0.99-1.94-1.97-1.96H959v-0.09v-0.77h0.09c0.87,0,1.77,0.08,2.62,0.08c0.68,0,1.34-0.08,2.1-0.05l10.01,11.27v-8.36
		c-0.02-1.81-1.22-2.04-1.88-2.05h-0.6v-0.09v-0.77h0.09c1.07,0,2.13,0.08,3.19,0.08c0.93,0,1.86-0.08,2.79-0.08h0.09v0.09v0.77
		h-0.09h-0.35c-0.95,0.03-1.91,0.11-1.93,2.79v10.35c0,0.79,0.02,1.59,0.13,2.29l0.02,0.11H975.18L975.18,172.3z M974.31,172.09
		L974.31,172.09h0.76c-0.09-0.68-0.13-1.44-0.13-2.19v-10.35c0-2.73,1.15-2.98,2.13-2.98h0.24v-0.49c-0.9,0-1.8,0.09-2.7,0.09
		c-1.04,0-2.05-0.08-3.08-0.09v0.49h0.39c0.69,0,2.08,0.32,2.08,2.24l-0.03,8.6l-0.05,0.05l-0.08,0.08l-10.12-11.44
		c-0.68,0-1.34,0.09-2.02,0.09c-0.84,0-1.69-0.08-2.51-0.09v0.49h0.21c1.07,0,2.16,0.82,2.16,2.15v9.58c0,1.81-0.51,2.98-2.15,2.98
		h-0.22v0.49c0.99-0.02,2-0.09,3-0.09c0.95,0,1.89,0.08,2.84,0.09v-0.49h-0.28c-1.8,0-2.24-0.79-2.24-2.76v-9.63L974.31,172.09
		L974.31,172.09z M973.87,167.37L973.87,167.37l0.08-0.06L973.87,167.37z M973.81,167.33L973.81,167.33L973.81,167.33l-0.02-0.03
		L973.81,167.33z"/>
	<path class="st13" d="M980.82,157.1c-1.7,0-1.77,0.41-2.11,2.07h-0.68c0.09-0.63,0.21-1.28,0.27-1.94
		c0.09-0.63,0.14-1.28,0.14-1.93h0.55c0.19,0.68,0.76,0.66,1.37,0.66h11.74c0.62,0,1.18-0.02,1.23-0.71l0.54,0.09
		c-0.09,0.62-0.17,1.23-0.25,1.85c-0.05,0.62-0.05,1.23-0.05,1.85l-0.68,0.25c-0.05-0.84-0.16-2.19-1.69-2.19h-3.74v12.1
		c0,1.75,0.8,1.96,1.89,1.96h0.44v0.69c-0.88,0-2.48-0.09-3.71-0.09c-1.36,0-2.97,0.09-3.85,0.09v-0.69h0.44
		c1.26,0,1.89-0.11,1.89-1.91V157.1L980.82,157.1L980.82,157.1z"/>
	<path class="st13" d="M989.8,171.95c-0.9,0-2.49-0.09-3.71-0.09c-1.36,0-2.95,0.09-3.85,0.09h-0.09v-0.09v-0.79h0.09h0.44
		c1.26-0.03,1.75-0.05,1.78-1.81V157.2h-3.63v-0.09v-0.09h3.84v12.26c0,1.83-0.74,2-1.99,2.02h-0.35v0.47c0.9,0,2.43-0.08,3.76-0.08
		c1.18,0,2.71,0.08,3.61,0.08v-0.47h-0.33c-1.1,0-1.99-0.27-1.99-2.05v-12.22h3.84c1.53,0,1.72,1.31,1.78,2.15l0.49-0.17
		c0-0.6,0-1.18,0.05-1.78c0.06-0.58,0.16-1.17,0.24-1.75l-0.35-0.06c-0.11,0.66-0.74,0.69-1.31,0.69h-11.74h-0.13
		c-0.54,0-1.12-0.03-1.33-0.66h-0.38c0,0.63-0.05,1.25-0.14,1.85c-0.06,0.63-0.17,1.23-0.25,1.83h0.49c0.3-1.59,0.49-2.1,2.19-2.08
		v0.09v0.09c-1.69,0.03-1.64,0.32-2.02,1.99l-0.02,0.08h-0.08h-0.8l0.02-0.13c0.09-0.63,0.21-1.28,0.27-1.94
		c0.09-0.63,0.14-1.26,0.14-1.91v-0.09h0.09h0.63l0.02,0.08c0.16,0.57,0.58,0.58,1.15,0.58h0.13h11.74
		c0.63-0.02,1.09-0.02,1.14-0.62l0.02-0.11l0.11,0.02l0.65,0.09l-0.02,0.09c-0.09,0.62-0.17,1.23-0.25,1.83
		c-0.05,0.6-0.05,1.22-0.05,1.83v0.08l-0.06,0.03l-0.8,0.3v-0.13c-0.06-0.85-0.16-2.1-1.59-2.1h-3.63v12.01
		c0.02,1.72,0.69,1.83,1.78,1.86h0.54v0.09v0.79H989.8L989.8,171.95z"/>
	<path class="st13" d="M994.59,171.16h0.32c0.82,0,1.69-0.11,1.69-1.29v-11.93c0-1.18-0.87-1.29-1.69-1.29h-0.32v-0.68
		c1.39,0,3.76,0.09,5.67,0.09c1.91,0,4.28-0.09,5.82-0.09c-0.03,0.98-0.02,2.48,0.05,3.49l-0.68,0.19
		c-0.11-1.48-0.38-2.67-2.78-2.67h-3.16v5.97h2.7c1.36,0,1.66-0.77,1.8-2h0.68c-0.05,0.88-0.06,1.78-0.06,2.67
		c0,0.87,0.03,1.74,0.06,2.59l-0.68,0.14c-0.13-1.36-0.21-2.26-1.78-2.26h-2.73v5.3c0,1.48,1.31,1.48,2.78,1.48
		c2.73,0,3.93-0.19,4.62-2.78l0.63,0.16c-0.3,1.22-0.57,2.41-0.77,3.63c-1.45,0-4.07-0.09-6.12-0.09c-2.05,0-4.75,0.09-6.06,0.09
		L994.59,171.16L994.59,171.16z"/>
	<path class="st13" d="M1006.76,171.95c-1.47,0-4.07-0.09-6.12-0.09c-2.05,0-4.75,0.09-6.06,0.09h-0.09v-0.09v-0.69v-0.09h0.09h0.32
		c0.82-0.02,1.58-0.08,1.58-1.2v-11.93c-0.02-1.1-0.76-1.18-1.58-1.2h-0.41v-0.09v-0.79h0.09c1.39,0,3.76,0.08,5.67,0.08
		s4.28-0.08,5.82-0.08h0.11v0.09c-0.02,0.35-0.02,0.74-0.02,1.18c0,0.79,0.02,1.64,0.06,2.29v0.08l-0.08,0.02l-0.8,0.21v-0.11
		c-0.13-1.48-0.33-2.54-2.67-2.57h-3.06v5.76h2.62c1.31-0.02,1.55-0.68,1.7-1.91l0.02-0.09h0.09h0.79v0.09
		c-0.05,0.88-0.08,1.77-0.08,2.67c0,0.87,0.03,1.72,0.08,2.59v0.08l-0.08,0.02l-0.79,0.16l-0.02-0.11
		c-0.16-1.39-0.17-2.15-1.67-2.16h-2.64v5.21c0,1.39,1.2,1.37,2.68,1.39c2.75-0.02,3.84-0.14,4.53-2.7l0.02-0.09l0.09,0.02
		l0.73,0.19l-0.02,0.09c-0.3,1.2-0.57,2.41-0.77,3.61l-0.02,0.08L1006.76,171.95L1006.76,171.95z M1006.68,171.76L1006.68,171.76
		c0.21-1.15,0.46-2.3,0.74-3.44l-0.44-0.11c-0.68,2.54-2,2.78-4.69,2.76c-1.44,0-2.87,0-2.87-1.58V164h2.83
		c1.59-0.02,1.75,0.95,1.86,2.24l0.49-0.09c-0.05-0.84-0.06-1.67-0.06-2.51c0-0.85,0.02-1.7,0.06-2.57h-0.49
		c-0.13,1.18-0.51,2.02-1.88,2h-2.81v-6.15h3.27c2.37-0.02,2.76,1.2,2.86,2.64l0.49-0.13c-0.05-0.65-0.06-1.47-0.06-2.23
		c0-0.39,0.02-0.76,0.02-1.07c-1.55,0-3.85,0.09-5.73,0.09c-1.86,0-4.17-0.08-5.57-0.09v0.49h0.22c0.8,0,1.78,0.14,1.78,1.4v11.93
		c0,1.26-0.98,1.39-1.78,1.4h-0.22v0.47c1.33,0,3.96-0.08,5.95-0.08C1002.66,171.67,1005.21,171.75,1006.68,171.76L1006.68,171.76z"
		/>
	<path class="st13" d="M1010.61,158.38c0-1.66-0.92-1.74-1.63-1.74h-0.41v-0.68c0.73,0,2.13,0.09,3.52,0.09
		c1.37,0,2.46-0.09,3.66-0.09c2.87,0,5.41,0.77,5.41,4.01c0,2.05-1.37,3.3-3.16,4.01l3.9,5.82c0.63,0.96,1.09,1.23,2.21,1.36v0.69
		c-0.76,0-1.48-0.09-2.23-0.09c-0.71,0-1.44,0.09-2.15,0.09c-1.75-2.3-3.25-4.75-4.73-7.39h-1.5v4.88c0,1.75,0.82,1.81,1.86,1.81
		h0.41v0.69c-1.29,0-2.62-0.09-3.91-0.09c-1.09,0-2.16,0.09-3.3,0.09v-0.69h0.41c0.85,0,1.63-0.38,1.63-1.23V158.38L1010.61,158.38z
		 M1013.53,163.67L1013.53,163.67h1.1c2.27,0,3.5-0.87,3.5-3.55c0-2.02-1.29-3.31-3.33-3.31c-0.68,0-0.98,0.08-1.29,0.09
		L1013.53,163.67L1013.53,163.67z"/>
	<path class="st13" d="M1024.14,171.95c-0.76,0-1.48-0.09-2.24-0.09c-0.69,0-1.42,0.09-2.21,0.05c-1.75-2.29-3.24-4.73-4.72-7.34
		h-1.34v4.77c0.03,1.72,0.71,1.7,1.77,1.72h0.51v0.09v0.79h-0.09c-1.29,0-2.62-0.09-3.91-0.09c-1.09,0-2.16,0.09-3.3,0.09h-0.09
		v-0.09v-0.79h0.09h0.41c0.82,0,1.52-0.36,1.52-1.12v-11.57c-0.02-1.61-0.8-1.61-1.52-1.63h-0.51v-0.09v-0.79h0.09
		c0.74,0,2.15,0.09,3.52,0.09c1.36,0,2.45-0.09,3.66-0.09c2.87,0,5.51,0.8,5.52,4.1c0,2.05-1.36,3.35-3.11,4.06l3.82,5.73
		c0.63,0.95,1.03,1.18,2.15,1.33l0.08,0.02v0.08v0.79H1024.14L1024.14,171.95z M1013.53,164.38L1013.53,164.38h1.56l0.03,0.05
		c1.48,2.62,2.98,5.07,4.66,7.32c0.69,0,1.42-0.09,2.13-0.09c0.73,0,1.42,0.08,2.13,0.09v-0.51c-1.07-0.13-1.56-0.46-2.19-1.4
		l-3.96-5.93l0.11-0.05c1.78-0.69,3.09-1.91,3.09-3.91c0-3.16-2.46-3.88-5.32-3.9c-1.2,0-2.29,0.09-3.66,0.09
		c-1.34,0-2.68-0.08-3.42-0.09v0.49h0.32c0.71,0,1.72,0.13,1.72,1.83v11.57c0,0.92-0.85,1.33-1.72,1.33h-0.32v0.47
		c1.09,0,2.13-0.09,3.2-0.09c1.28,0,2.56,0.08,3.82,0.09v-0.47h-0.32c-1.04,0-1.96-0.13-1.96-1.93v-4.97h0.09V164.38z
		 M1013.53,163.76L1013.53,163.76h-0.09v-6.98h0.08c0.32-0.02,0.62-0.09,1.31-0.09c2.07,0,3.42,1.34,3.42,3.42
		c0,2.71-1.31,3.65-3.6,3.65H1013.53L1013.53,163.76z M1014.64,163.56L1014.64,163.56c2.26-0.02,3.39-0.8,3.41-3.44
		c-0.02-1.99-1.25-3.22-3.24-3.24c-0.62,0-0.9,0.06-1.2,0.08v6.6H1014.64L1014.64,163.56z"/>
	<path class="st13" d="M1039.59,167.37l0.05-0.05v-8.54c0-1.86-1.29-2.15-1.97-2.15h-0.51v-0.68c1.07,0,2.11,0.09,3.19,0.09
		c0.93,0,1.86-0.09,2.81-0.09v0.68h-0.35c-0.96,0-2.02,0.17-2.02,2.89v10.35c0,0.79,0.02,1.59,0.13,2.3h-0.87l-11.73-13.07v9.37
		c0,1.97,0.38,2.67,2.13,2.67h0.39v0.69c-0.98,0-1.96-0.09-2.94-0.09c-1.03,0-2.07,0.09-3.09,0.09v-0.69h0.32
		c1.58,0,2.05-1.07,2.05-2.89v-9.6c0-1.28-1.04-2.05-2.07-2.05h-0.3v-0.68c0.87,0,1.75,0.09,2.62,0.09c0.68,0,1.34-0.09,2.02-0.09
		L1039.59,167.37L1039.59,167.37z"/>
	<path class="st13" d="M1040.9,172.3l-0.93-0.03l-11.55-12.88v9.12c0.03,1.97,0.33,2.54,2.04,2.57h0.49v0.09v0.79h-0.09
		c-0.98,0-1.96-0.09-2.94-0.09c-1.01,0-2.07,0.09-3.09,0.09h-0.11v-0.09v-0.79h0.11h0.32c1.5,0,1.94-0.98,1.94-2.79v-9.58
		c0-1.22-0.99-1.94-1.97-1.96h-0.39v-0.09v-0.79h0.11c0.87,0,1.75,0.09,2.62,0.09c0.66,0,1.33-0.09,2.1-0.06l10.01,11.27v-8.38
		c0-1.81-1.22-2.04-1.88-2.04h-0.6v-0.09v-0.79h0.09c1.07,0,2.13,0.09,3.19,0.09c0.93,0,1.86-0.09,2.79-0.09h0.09v0.09v0.77h-0.09
		h-0.33c-0.93,0.03-1.91,0.11-1.93,2.79v10.35c0,0.79,0.02,1.58,0.14,2.29l0.02,0.11L1040.9,172.3L1040.9,172.3z M1040.03,172.09
		L1040.03,172.09h0.74c-0.09-0.68-0.13-1.44-0.13-2.19v-10.35c0-2.73,1.15-2.98,2.13-3h0.24v-0.47c-0.9,0-1.8,0.09-2.7,0.09
		c-1.04,0-2.07-0.08-3.09-0.09v0.47h0.41c0.69,0,2.08,0.32,2.08,2.24l-0.03,8.6l-0.05,0.05l-0.06,0.08l-10.13-11.44
		c-0.68,0-1.34,0.09-2.02,0.09c-0.84,0-1.69-0.08-2.53-0.09v0.47h0.21c1.07,0,2.16,0.82,2.16,2.15v9.58c0,1.83-0.52,3-2.15,3h-0.22
		v0.47c0.98,0,2-0.08,3-0.08c0.96,0,1.89,0.08,2.84,0.08v-0.47h-0.28c-1.8,0-2.24-0.79-2.24-2.76v-9.63L1040.03,172.09
		L1040.03,172.09z M1039.59,167.37L1039.59,167.37l0.06-0.06L1039.59,167.37z M1039.52,167.33L1039.52,167.33L1039.52,167.33
		l-0.02-0.03L1039.52,167.33z"/>
	<path class="st13" d="M1046.8,168.61c-0.24,0.77-0.51,1.37-0.51,1.77c0,0.68,0.96,0.79,1.7,0.79h0.25v0.69
		c-0.92-0.05-1.85-0.09-2.76-0.09c-0.82,0-1.63,0.05-2.45,0.09v-0.69h0.14c0.88,0,1.64-0.52,1.97-1.48l3.65-10.45
		c0.3-0.84,0.71-1.97,0.85-2.82c0.73-0.25,1.64-0.71,2.07-0.98c0.06-0.02,0.11-0.05,0.19-0.05c0.06,0,0.11,0,0.16,0.08
		c0.06,0.17,0.13,0.39,0.21,0.57l4.18,11.9c0.27,0.79,0.54,1.64,0.84,2.32c0.27,0.63,0.76,0.92,1.5,0.92h0.13v0.69
		c-1.03-0.05-2.05-0.09-3.14-0.09c-1.12,0-2.26,0.05-3.42,0.09v-0.69h0.25c0.52,0,1.4-0.09,1.4-0.66c0-0.3-0.21-0.92-0.46-1.64
		l-0.88-2.64h-5.16L1046.8,168.61L1046.8,168.61z M1050.11,158.52L1050.11,158.52h-0.05l-2.11,6.44h4.26L1050.11,158.52z"/>
	<path class="st13" d="M1058.92,171.95c-1.03-0.05-2.05-0.09-3.12-0.09c-1.12,0-2.26,0.05-3.41,0.09h-0.11v-0.09v-0.79h0.09h0.25
		c0.52,0,1.31-0.13,1.31-0.55c0-0.25-0.21-0.88-0.44-1.61l-0.87-2.57h-5.02l-0.71,2.3c-0.24,0.77-0.51,1.37-0.51,1.75
		c0,0.55,0.85,0.69,1.61,0.69h0.35v0.09v0.79h-0.11c-0.92-0.05-1.85-0.09-2.75-0.09c-0.82,0-1.64,0.05-2.45,0.09h-0.11v-0.09v-0.79
		h0.09h0.14c0.85,0,1.55-0.49,1.88-1.4l3.65-10.45c0.3-0.85,0.71-1.97,0.9-2.89c0.71-0.24,1.63-0.69,2.07-0.98
		c0.06-0.02,0.13-0.05,0.22-0.05c0.05,0,0.17,0.02,0.25,0.13c0.06,0.19,0.14,0.39,0.21,0.57l4.2,11.9c0.27,0.8,0.54,1.64,0.84,2.3
		c0.27,0.62,0.68,0.85,1.42,0.85h0.24v0.09v0.79H1058.92L1058.92,171.95z M1052.47,171.75L1052.47,171.75
		c1.12-0.05,2.23-0.08,3.31-0.08c1.06,0,2.05,0.05,3.03,0.08v-0.47h-0.03c-0.77,0-1.31-0.3-1.59-0.98c-0.3-0.69-0.57-1.53-0.84-2.34
		l-4.2-11.9c-0.06-0.17-0.14-0.39-0.19-0.55c-0.02-0.02-0.02-0.02-0.03-0.02h-0.05c-0.05,0-0.08,0.02-0.13,0.03
		c-0.44,0.28-1.36,0.73-2.02,0.92c-0.14,0.87-0.55,2-0.85,2.84l-3.65,10.45c-0.35,0.99-1.15,1.55-2.07,1.55h-0.03v0.47
		c0.77-0.05,1.56-0.08,2.35-0.08c0.88,0,1.78,0.05,2.65,0.08v-0.47H1048c-0.74-0.02-1.78-0.09-1.8-0.9c0-0.46,0.28-1.04,0.51-1.8
		l0.09,0.03l-0.09-0.03l0.76-2.43h5.3l0.92,2.7c0.25,0.73,0.46,1.34,0.46,1.67c-0.03,0.69-0.99,0.74-1.52,0.76h-0.16V171.75
		L1052.47,171.75z M1047.81,165.05L1047.81,165.05l2.18-6.64h0.08h0.05v0.09h-0.03h0.03v-0.09h0.06l2.16,6.64H1047.81z
		 M1048.09,164.87L1048.09,164.87h3.98l-1.99-6.09L1048.09,164.87z M1050.02,158.55L1050.02,158.55l0.05-0.02L1050.02,158.55z"/>
	<path class="st13" d="M1059.93,157.1c-1.7,0-1.78,0.41-2.11,2.07h-0.68c0.09-0.63,0.21-1.28,0.28-1.94
		c0.09-0.63,0.13-1.28,0.13-1.93h0.55c0.19,0.68,0.76,0.66,1.36,0.66h11.74c0.62,0,1.18-0.02,1.23-0.71l0.54,0.09
		c-0.09,0.62-0.17,1.23-0.25,1.85c-0.05,0.62-0.05,1.23-0.05,1.85l-0.68,0.25c-0.05-0.84-0.16-2.19-1.69-2.19h-3.74v12.1
		c0,1.75,0.8,1.96,1.89,1.96h0.43v0.69c-0.88,0-2.48-0.09-3.71-0.09c-1.36,0-2.97,0.09-3.85,0.09v-0.69h0.43
		c1.25,0,1.89-0.11,1.89-1.91V157.1L1059.93,157.1L1059.93,157.1z"/>
	<path class="st13" d="M1068.89,171.95c-0.9,0-2.49-0.09-3.71-0.09c-1.36,0-2.95,0.09-3.85,0.09h-0.09v-0.09v-0.79h0.09h0.43
		c1.25-0.03,1.75-0.05,1.78-1.81V157.2h-3.63v-0.09v-0.09h3.83v12.26c0,1.83-0.74,2-1.99,2h-0.33v0.49c0.9-0.02,2.43-0.09,3.76-0.09
		c1.18,0,2.71,0.08,3.61,0.09v-0.49h-0.33c-1.09,0-1.99-0.27-1.99-2.05v-12.22h3.84c1.53,0,1.72,1.31,1.77,2.15l0.51-0.17
		c0-0.6,0-1.18,0.05-1.78c0.06-0.58,0.14-1.17,0.24-1.75l-0.35-0.06c-0.11,0.66-0.74,0.69-1.31,0.69h-11.74h-0.11
		c-0.54,0-1.12-0.03-1.33-0.66h-0.38c0,0.63-0.05,1.25-0.14,1.85c-0.06,0.63-0.17,1.23-0.25,1.83h0.49c0.3-1.59,0.51-2.1,2.19-2.08
		v0.09v0.09c-1.69,0.03-1.64,0.32-2.02,1.99l-0.02,0.08h-0.08h-0.8l0.02-0.11c0.09-0.65,0.21-1.28,0.27-1.94
		c0.09-0.63,0.14-1.26,0.14-1.93v-0.08h0.09h0.62l0.02,0.08c0.16,0.57,0.57,0.58,1.15,0.58h0.11h11.74
		c0.63-0.02,1.09-0.02,1.12-0.62v-0.11l0.11,0.02l0.65,0.09l-0.02,0.09c-0.09,0.62-0.17,1.23-0.25,1.83
		c-0.05,0.6-0.05,1.23-0.05,1.83v0.08l-0.06,0.03l-0.8,0.3v-0.13c-0.06-0.85-0.14-2.1-1.59-2.1h-3.63v12.01
		c0.03,1.72,0.71,1.83,1.78,1.86h0.54v0.09v0.79H1068.89L1068.89,171.95z"/>
	<path class="st13" d="M1073.8,171.16h0.32c0.82,0,1.69-0.11,1.69-1.29v-11.93c0-1.18-0.85-1.29-1.69-1.29h-0.32v-0.68
		c0.88,0,2.26,0.09,3.36,0.09c1.14,0,2.51-0.09,3.58-0.09v0.68h-0.32c-0.82,0-1.69,0.11-1.69,1.29v11.93c0,1.18,0.87,1.29,1.69,1.29
		h0.32v0.69c-1.09,0-2.46-0.09-3.6-0.09c-1.12,0-2.46,0.09-3.35,0.09V171.16L1073.8,171.16z"/>
	<path class="st13" d="M1080.75,171.95c-1.1,0-2.46-0.09-3.6-0.09c-1.12,0-2.46,0.09-3.35,0.09h-0.09v-0.09v-0.69v-0.09h0.09h0.32
		c0.82-0.02,1.58-0.08,1.58-1.2v-11.93c0-1.1-0.76-1.18-1.58-1.2h-0.43v-0.09v-0.79h0.09c0.88,0,2.26,0.08,3.36,0.08
		c1.14,0,2.49-0.08,3.58-0.08h0.09v0.09v0.77h-0.09h-0.32c-0.84,0.02-1.58,0.09-1.59,1.2v11.93c0.02,1.12,0.76,1.18,1.59,1.2h0.41
		v0.09v0.79L1080.75,171.95L1080.75,171.95z M1080.64,171.76L1080.64,171.76v-0.49h-0.22c-0.82,0-1.78-0.14-1.78-1.4v-11.93
		c0-1.26,0.96-1.4,1.78-1.4h0.22v-0.49c-1.06,0-2.37,0.09-3.47,0.09c-1.07,0-2.38-0.08-3.27-0.09v0.49h0.22
		c0.8,0,1.78,0.14,1.78,1.4v11.93c0,1.25-0.98,1.4-1.78,1.4h-0.22v0.49c0.88-0.02,2.16-0.09,3.25-0.09
		C1078.25,171.67,1079.56,171.75,1080.64,171.76L1080.64,171.76z"/>
	<path class="st13" d="M1089.82,155.63c4.85,0,8.71,3.01,8.71,7.86c0,5.24-3.76,8.71-8.6,8.71c-4.83,0-8.51-3.28-8.51-8.18
		C1081.43,159.29,1085.09,155.63,1089.82,155.63L1089.82,155.63z M1090.17,171.19L1090.17,171.19c4.42,0,5.18-3.9,5.18-7.21
		c0-3.33-1.8-7.35-5.57-7.35c-3.98,0-5.16,3.55-5.16,6.6C1084.61,167.3,1086.48,171.19,1090.17,171.19L1090.17,171.19z"/>
	<path class="st13" d="M1081.33,164.03c0.02-4.78,3.71-8.49,8.49-8.51v0.09v0.09c-4.67,0-8.3,3.61-8.3,8.3
		c0.02,4.85,3.65,8.06,8.43,8.06c4.8,0,8.49-3.44,8.51-8.62c0-4.78-3.82-7.75-8.62-7.75v-0.09v-0.09c4.89,0,8.81,3.05,8.82,7.95
		c0,5.29-3.8,8.81-8.7,8.82C1085.07,172.28,1081.33,168.97,1081.33,164.03L1081.33,164.03L1081.33,164.03z M1084.52,163.22
		L1084.52,163.22c0-3.06,1.2-6.71,5.27-6.71c3.87,0.02,5.67,4.12,5.67,7.46c0,3.31-0.79,7.31-5.29,7.31v-0.09v-0.09
		c4.32,0,5.08-3.8,5.08-7.12c0-3.3-1.78-7.24-5.48-7.26c-3.9,0-5.07,3.47-5.07,6.5c0,4.06,1.85,7.86,5.46,7.88v0.09v0.09
		C1086.38,171.29,1084.52,167.33,1084.52,163.22L1084.52,163.22z"/>
	<path class="st13" d="M1113.87,167.37l0.05-0.05v-8.54c0-1.86-1.29-2.15-1.99-2.15h-0.49v-0.68c1.07,0,2.11,0.09,3.19,0.09
		c0.93,0,1.86-0.09,2.81-0.09v0.68h-0.35c-0.95,0-2.02,0.17-2.02,2.89v10.35c0,0.79,0.02,1.59,0.14,2.3h-0.87l-11.73-13.07v9.37
		c0,1.97,0.38,2.67,2.13,2.67h0.39v0.69c-0.98,0-1.96-0.09-2.94-0.09c-1.03,0-2.07,0.09-3.09,0.09v-0.69h0.32
		c1.58,0,2.05-1.07,2.05-2.89v-9.6c0-1.28-1.04-2.05-2.07-2.05h-0.3v-0.68c0.87,0,1.75,0.09,2.62,0.09c0.68,0,1.34-0.09,2.02-0.09
		L1113.87,167.37L1113.87,167.37z"/>
	<path class="st13" d="M1115.2,172.3l-0.95-0.03l-11.55-12.88v9.12c0.03,1.97,0.33,2.54,2.04,2.56h0.49v0.09v0.79h-0.09
		c-0.99,0-1.96-0.09-2.94-0.09c-1.03,0-2.07,0.09-3.09,0.09h-0.09v-0.09v-0.79h0.09h0.32c1.5,0,1.93-0.96,1.96-2.78v-9.6
		c0-1.22-0.99-1.94-1.97-1.96h-0.39v-0.09v-0.79h0.09c0.87,0,1.77,0.09,2.62,0.09c0.68,0,1.33-0.09,2.1-0.05l10.01,11.27v-8.36
		c0-1.81-1.22-2.04-1.88-2.05h-0.6v-0.09v-0.79h0.11c1.07,0,2.11,0.08,3.17,0.08c0.93,0,1.86-0.08,2.81-0.08h0.09v0.09v0.77h-0.09
		h-0.35c-0.93,0.03-1.91,0.11-1.93,2.79v10.35c0,0.79,0.02,1.59,0.13,2.29l0.02,0.11L1115.2,172.3L1115.2,172.3z M1114.33,172.09
		L1114.33,172.09h0.74c-0.09-0.68-0.11-1.44-0.11-2.19v-10.35c0-2.73,1.15-2.98,2.13-3h0.25v-0.47c-0.9,0-1.8,0.09-2.71,0.09
		c-1.04,0-2.05-0.08-3.08-0.09v0.47h0.39c0.71,0,2.08,0.32,2.08,2.24l-0.03,8.6l-0.05,0.05l-0.08,0.08l-10.13-11.44
		c-0.68,0-1.34,0.09-2.02,0.09c-0.84,0-1.69-0.08-2.53-0.09v0.47h0.21c1.07,0,2.16,0.82,2.16,2.15v9.6c0,1.81-0.51,2.98-2.15,3
		h-0.22v0.49c0.99,0,2-0.08,3-0.08c0.95,0,1.89,0.08,2.84,0.08v-0.47h-0.3c-1.78,0-2.23-0.79-2.23-2.76v-9.63L1114.33,172.09
		L1114.33,172.09z M1113.87,167.37L1113.87,167.37l0.08-0.06L1113.87,167.37z M1113.83,167.33L1113.83,167.33L1113.83,167.33
		l-0.02-0.03L1113.83,167.33z"/>
	<path class="st13" d="M1121.09,168.61c-0.22,0.77-0.51,1.37-0.51,1.77c0,0.68,0.96,0.79,1.7,0.79h0.25v0.69
		c-0.92-0.05-1.85-0.09-2.76-0.09c-0.82,0-1.64,0.05-2.46,0.09v-0.69h0.13c0.9,0,1.64-0.52,1.99-1.48l3.65-10.45
		c0.3-0.84,0.71-1.97,0.84-2.82c0.73-0.25,1.64-0.71,2.07-0.98c0.06-0.02,0.11-0.05,0.17-0.05s0.11,0,0.16,0.08
		c0.06,0.17,0.14,0.39,0.21,0.57l4.18,11.9c0.27,0.79,0.55,1.64,0.84,2.32c0.27,0.63,0.76,0.92,1.5,0.92h0.14v0.69
		c-1.03-0.05-2.05-0.09-3.14-0.09c-1.12,0-2.26,0.05-3.41,0.09v-0.69h0.25c0.52,0,1.4-0.09,1.4-0.66c0-0.3-0.21-0.92-0.46-1.64
		l-0.88-2.64h-5.16L1121.09,168.61L1121.09,168.61z M1124.42,158.52L1124.42,158.52h-0.05l-2.11,6.44h4.26L1124.42,158.52z"/>
	<path class="st13" d="M1133.21,171.95c-1.03-0.05-2.05-0.09-3.14-0.09c-1.1,0-2.26,0.05-3.41,0.09h-0.09v-0.11v-0.79h0.09h0.25
		c0.54,0,1.31-0.13,1.31-0.55c0-0.25-0.21-0.88-0.46-1.61l-0.87-2.57h-5.02l-0.71,2.3c-0.22,0.77-0.51,1.37-0.49,1.75
		c0,0.55,0.85,0.69,1.61,0.69h0.35v0.09v0.79h-0.09c-0.92-0.05-1.85-0.09-2.75-0.09c-0.82,0-1.64,0.05-2.46,0.09h-0.09v-0.11v-0.79
		h0.09h0.13c0.85,0,1.56-0.49,1.89-1.42l3.65-10.45c0.28-0.85,0.69-1.97,0.9-2.89c0.71-0.25,1.63-0.71,2.07-0.98
		c0.06-0.02,0.13-0.05,0.22-0.05c0.06,0,0.17,0,0.25,0.13c0.06,0.17,0.13,0.38,0.21,0.57l4.18,11.9c0.27,0.8,0.55,1.64,0.84,2.32
		c0.27,0.6,0.68,0.84,1.4,0.85h0.24v0.09v0.79L1133.21,171.95L1133.21,171.95z M1126.77,171.75L1126.77,171.75
		c1.12-0.05,2.24-0.08,3.31-0.08c1.06,0,2.05,0.05,3.05,0.08v-0.47h-0.03c-0.77,0-1.31-0.3-1.59-0.98c-0.3-0.69-0.57-1.53-0.84-2.34
		l-4.18-11.9c-0.06-0.17-0.14-0.39-0.19-0.54c-0.02-0.03-0.02-0.03-0.03-0.03h-0.05c-0.05,0-0.08,0.02-0.13,0.03
		c-0.44,0.28-1.36,0.73-2.04,0.92c-0.14,0.87-0.55,1.99-0.85,2.84l-3.65,10.45c-0.35,0.99-1.14,1.55-2.07,1.55h-0.03v0.47
		c0.79-0.05,1.56-0.08,2.35-0.08c0.88,0,1.78,0.05,2.65,0.08v-0.47h-0.16c-0.74-0.02-1.78-0.09-1.8-0.9c0-0.46,0.28-1.03,0.51-1.8
		l0.09,0.03l-0.09-0.03l0.76-2.43h5.3l0.92,2.7c0.25,0.73,0.46,1.34,0.46,1.67c-0.03,0.69-0.99,0.74-1.52,0.76h-0.14L1126.77,171.75
		L1126.77,171.75z M1122.11,165.05L1122.11,165.05l2.18-6.64h0.06h0.05v0.09h-0.03h0.03v-0.09h0.08l2.15,6.64H1122.11z
		 M1122.38,164.87L1122.38,164.87h3.98l-1.97-6.09L1122.38,164.87L1122.38,164.87z M1124.32,158.55L1124.32,158.55l0.05-0.02
		L1124.32,158.55z"/>
	<path class="st13" d="M1138.95,169.63c0,0.92,0.63,1.18,1.36,1.28c0.93,0.06,1.96,0.06,3.01-0.05c0.95-0.11,1.77-0.66,2.18-1.23
		c0.36-0.51,0.57-1.14,0.71-1.64h0.66c-0.25,1.29-0.57,2.57-0.84,3.87c-2,0-4.01-0.09-6.01-0.09c-2,0-4.01,0.09-6.01,0.09v-0.69
		h0.32c0.82,0,1.72-0.11,1.72-1.52v-11.69c0-1.18-0.88-1.29-1.72-1.29h-0.32v-0.68c1.2,0,2.38,0.09,3.6,0.09
		c1.17,0,2.3-0.09,3.46-0.09v0.68h-0.57c-0.87,0-1.55,0.03-1.55,1.23V169.63L1138.95,169.63z"/>
	<path class="st13" d="M1146.02,171.95c-2,0-4.01-0.09-6-0.09c-2,0-4.01,0.09-6.01,0.09h-0.09v-0.09v-0.79h0.09h0.32
		c0.82-0.02,1.61-0.08,1.61-1.42v-11.69c-0.02-1.1-0.79-1.18-1.61-1.2h-0.41v-0.09v-0.79h0.09c1.22,0,2.4,0.08,3.6,0.08
		c1.15,0,2.29-0.08,3.46-0.08h0.09v0.09v0.77h-0.09h-0.57c-0.88,0.03-1.44-0.02-1.45,1.14v11.74c0,0.85,0.57,1.07,1.28,1.18
		c0.39,0.03,0.82,0.05,1.26,0.05c0.55,0,1.14-0.03,1.72-0.09c0.93-0.11,1.72-0.65,2.11-1.18c0.35-0.49,0.55-1.1,0.69-1.61l0.02-0.08
		h0.08h0.79l-0.02,0.13c-0.25,1.31-0.57,2.57-0.85,3.87l-0.02,0.08L1146.02,171.95L1146.02,171.95L1146.02,171.95z M1145.94,171.76
		L1145.94,171.76c0.27-1.23,0.57-2.45,0.8-3.68h-0.47c-0.14,0.49-0.35,1.1-0.69,1.61c-0.43,0.58-1.26,1.15-2.26,1.26
		c-0.6,0.06-1.18,0.09-1.75,0.09c-0.44,0-0.87-0.02-1.28-0.05c-0.74-0.08-1.45-0.39-1.45-1.37v-11.74c0-1.26,0.8-1.33,1.64-1.33
		h0.47v-0.49c-1.12,0-2.23,0.09-3.36,0.09c-1.18,0-2.34-0.08-3.5-0.09v0.49h0.22c0.82,0,1.8,0.14,1.8,1.39v11.69
		c0,1.47-0.99,1.63-1.8,1.63h-0.22v0.47c1.97,0,3.93-0.08,5.92-0.08S1143.97,171.75,1145.94,171.76L1145.94,171.76z"/>
	<path class="st12" d="M900.85,184.72c21.75,0.11,41.59-17.72,41.59-39.42c0-23.72-19.85-40.13-41.59-40.12h-18.72
		c-22-0.02-40.1,16.4-40.1,40.12c0,21.7,18.1,39.53,40.1,39.42H900.85z"/>
	<path class="st1" d="M882.23,108.46c-20.11,0-36.39,16.3-36.39,36.41s16.29,36.39,36.39,36.41c20.11,0,36.41-16.3,36.41-36.41
		S902.33,108.48,882.23,108.46z M859.15,144.89L859.15,144.89c0.02-9.83,6.15-18.21,14.8-21.54v43.07
		C865.31,163.08,859.17,154.7,859.15,144.89z M890.48,166.41L890.48,166.41v-43.08c8.66,3.33,14.8,11.71,14.82,21.54
		C905.28,154.72,899.14,163.1,890.48,166.41z"/>
	<path class="st13" d="M955.19,122.29c0-3.76-1.96-3.52-3.85-3.55v-1.09c1.63,0.08,3.3,0.08,4.94,0.08c1.75,0,4.13-0.08,7.24-0.08
		c10.83,0,16.73,7.23,16.73,14.65c0,4.15-2.43,14.55-17.23,14.55c-2.13,0-4.1-0.08-6.06-0.08c-1.88,0-3.72,0.05-5.6,0.08v-1.09
		c2.51-0.25,3.72-0.33,3.85-3.19L955.19,122.29L955.19,122.29z M959.27,141.92L959.27,141.92c0,3.22,2.3,3.6,4.36,3.6
		c9.04,0,12.01-6.82,12.01-13.05c0-7.83-5.02-13.46-13.08-13.46c-1.72,0-2.51,0.13-3.27,0.17L959.27,141.92L959.27,141.92z"/>
	<path class="st13" d="M981.7,145.77h0.79c1.17,0,2,0,2-1.39v-11.33c0-1.83-0.63-2.1-2.18-2.92v-0.68c1.97-0.58,4.31-1.37,4.47-1.5
		c0.3-0.17,0.55-0.21,0.76-0.21c0.21,0,0.3,0.25,0.3,0.58v16.07c0,1.39,0.92,1.39,2.1,1.39h0.71v1.09c-1.42,0-2.89-0.08-4.39-0.08
		s-3.01,0.05-4.56,0.08V145.77L981.7,145.77z M986.18,121.29L986.18,121.29c-1.09,0-2.05-1.01-2.05-2.1c0-1.04,1.01-2.02,2.05-2.02
		c1.09,0,2.05,0.88,2.05,2.02C988.23,120.33,987.3,121.29,986.18,121.29z"/>
	<path class="st13" d="M994.62,133.29c0-1.55-0.46-1.96-2.43-2.76v-0.79c1.8-0.58,3.5-1.14,5.52-2c0.13,0,0.25,0.08,0.25,0.41v2.71
		c2.38-1.72,4.43-3.14,7.24-3.14c3.55,0,4.8,2.59,4.8,5.86v10.79c0,1.39,0.92,1.39,2.1,1.39h0.76v1.09c-1.47,0-2.94-0.08-4.43-0.08
		c-1.52,0-3.01,0.05-4.51,0.08v-1.09h0.76c1.17,0,2,0,2-1.39v-10.83c0-2.38-1.45-3.55-3.85-3.55c-1.34,0-3.47,1.09-4.86,2v12.37
		c0,1.39,0.93,1.39,2.1,1.39h0.76v1.09c-1.47,0-2.94-0.08-4.43-0.08c-1.5,0-3.01,0.05-4.51,0.08v-1.09h0.76c1.17,0,2,0,2-1.39
		L994.62,133.29L994.62,133.29z"/>
	<path class="st13" d="M1016.04,135.31c-0.09,0.38-0.09,1.01,0,2.43c0.25,3.98,2.81,7.23,6.14,7.23c2.3,0,4.1-1.25,5.65-2.81
		l0.58,0.58c-1.93,2.56-4.31,4.72-7.73,4.72c-6.66,0-7.99-6.44-7.99-9.12c0-8.21,5.52-10.62,8.44-10.62c3.39,0,7.04,2.13,7.07,6.57
		c0,0.25,0,0.51-0.05,0.76l-0.38,0.25h-11.74V135.31z M1023.44,133.96L1023.44,133.96c1.04,0,1.17-0.54,1.17-1.04
		c0-2.13-1.29-3.85-3.65-3.85c-2.56,0-4.31,1.88-4.81,4.89H1023.44L1023.44,133.96z"/>
	<path class="st13" d="M1029.17,145.77h1.14c1.17,0,2,0,2-1.39v-11.76c0-1.29-1.55-1.55-2.18-1.88v-0.63
		c3.05-1.29,4.73-2.38,5.11-2.38c0.25,0,0.36,0.13,0.36,0.55v3.77h0.09c1.04-1.63,2.81-4.31,5.35-4.31c1.04,0,2.38,0.71,2.38,2.23
		c0,1.14-0.79,2.13-1.96,2.13c-1.31,0-1.31-1.01-2.76-1.01c-0.71,0-3.05,0.96-3.05,3.47v9.83c0,1.39,0.84,1.39,2,1.39h2.34v1.09
		c-2.3-0.05-4.06-0.08-5.86-0.08c-1.72,0-3.47,0.05-4.97,0.08L1029.17,145.77L1029.17,145.77z"/>
	<path class="st13" d="M1045.28,141.03c0.55,2.76,2.21,5.11,5.27,5.11c2.46,0,3.38-1.5,3.38-2.97c0-4.94-9.12-3.35-9.12-10.08
		c0-2.35,1.88-5.35,6.49-5.35c1.34,0,3.14,0.38,4.77,1.22l0.3,4.26h-0.96c-0.41-2.64-1.88-4.13-4.56-4.13
		c-1.67,0-3.27,0.96-3.27,2.76c0,4.89,9.71,3.39,9.71,9.96c0,2.76-2.23,5.7-7.2,5.7c-1.67,0-3.65-0.58-5.1-1.42l-0.46-4.81
		L1045.28,141.03L1045.28,141.03z"/>
	<path class="st13" d="M1095.05,125.22H1094c-0.79-4.89-4.26-6.87-8.95-6.87c-4.81,0-11.81,3.22-11.81,13.26
		c0,8.46,6.03,14.52,12.47,14.52c4.13,0,7.58-2.84,8.41-7.24l0.96,0.25l-0.96,6.11c-1.75,1.09-6.49,2.23-9.25,2.23
		c-9.78,0-15.97-6.31-15.97-15.73c0-8.57,7.65-14.72,15.85-14.72c3.39,0,6.64,1.09,9.86,2.23L1095.05,125.22L1095.05,125.22z"/>
	<path class="st13" d="M1096.56,145.77h0.79c1.17,0,2.02,0,2.02-1.39v-23.29c0-2.71-0.63-2.81-2.23-3.27v-0.66
		c1.67-0.54,3.42-1.29,4.31-1.8c0.46-0.25,0.79-0.46,0.92-0.46c0.25,0,0.35,0.25,0.35,0.58v28.9c0,1.39,0.92,1.39,2.1,1.39h0.71
		v1.09c-1.42,0-2.89-0.08-4.39-0.08c-1.5,0-3.01,0.05-4.56,0.08L1096.56,145.77L1096.56,145.77z"/>
	<path class="st13" d="M1123.41,144.54c0,0.76,0.46,0.8,1.17,0.8c0.51,0,1.14-0.05,1.67-0.05v0.88c-1.8,0.16-5.22,1.04-6.03,1.29
		l-0.21-0.13v-3.38c-2.51,2.05-4.43,3.52-7.4,3.52c-2.26,0-4.59-1.47-4.59-4.97V131.8c0-1.09-0.17-2.13-2.51-2.34v-0.79
		c1.52-0.05,4.85-0.3,5.4-0.3c0.46,0,0.46,0.3,0.46,1.22v10.79c0,1.26,0,4.86,3.63,4.86c1.42,0,3.3-1.09,5.07-2.54v-11.25
		c0-0.84-2-1.29-3.5-1.72v-0.76c3.76-0.25,6.11-0.58,6.52-0.58c0.33,0,0.33,0.3,0.33,0.76V144.54L1123.41,144.54z"/>
	<path class="st13" d="M1131.74,130.74c1.67-1.42,3.93-3.01,6.23-3.01c4.86,0,7.78,4.23,7.78,8.79c0,5.48-4.01,10.97-10.01,10.97
		c-3.09,0-4.72-1.01-5.81-1.47l-1.25,0.96l-0.87-0.46c0.36-2.46,0.58-4.89,0.58-7.45v-17.99c0-2.71-0.63-2.81-2.23-3.27v-0.66
		c1.67-0.54,3.42-1.29,4.31-1.8c0.46-0.25,0.79-0.46,0.92-0.46c0.25,0,0.33,0.25,0.33,0.58V130.74L1131.74,130.74L1131.74,130.74z
		 M1131.74,142.12L1131.74,142.12c0,1.59,1.5,4.28,4.31,4.28c4.48,0,6.36-4.4,6.36-8.11c0-4.51-3.42-8.29-6.69-8.29
		c-1.55,0-2.84,1.01-3.98,1.97V142.12L1131.74,142.12z"/>
	<path class="st13" d="M951.29,171.16h0.32c0.82,0,1.69-0.11,1.69-1.29v-11.93c0-1.18-0.87-1.29-1.69-1.29h-0.32v-0.68
		c0.88,0,2.26,0.09,3.38,0.09c1.14,0,2.49-0.09,3.57-0.09v0.68h-0.32c-0.82,0-1.69,0.11-1.69,1.29v11.93c0,1.18,0.87,1.29,1.69,1.29
		h0.32v0.69c-1.09,0-2.46-0.09-3.6-0.09c-1.12,0-2.46,0.09-3.35,0.09V171.16L951.29,171.16z"/>
	<path class="st13" d="M958.23,171.95c-1.1,0-2.46-0.09-3.6-0.09c-1.1,0-2.45,0.09-3.35,0.09h-0.09v-0.09v-0.68v-0.09h0.09h0.32
		c0.82-0.02,1.58-0.08,1.58-1.2v-11.93c0-1.1-0.76-1.18-1.58-1.2h-0.41v-0.09v-0.79h0.09c0.9,0,2.26,0.09,3.38,0.09
		c1.14,0,2.49-0.09,3.57-0.09h0.09v0.11v0.77h-0.09h-0.32c-0.82,0.02-1.58,0.09-1.58,1.2v11.93c0,1.1,0.76,1.18,1.58,1.2h0.43v0.09
		v0.79L958.23,171.95L958.23,171.95z M958.14,171.76L958.14,171.76v-0.49h-0.22c-0.82,0-1.78-0.14-1.78-1.4v-11.93
		c0-1.26,0.98-1.4,1.78-1.4h0.22v-0.49c-1.06,0-2.37,0.09-3.47,0.09c-1.07,0-2.38-0.08-3.27-0.09v0.49h0.22
		c0.8,0,1.78,0.14,1.78,1.4v11.93c0,1.26-0.98,1.4-1.78,1.4h-0.22v0.49c0.88-0.02,2.16-0.09,3.25-0.09
		C955.74,171.67,957.06,171.75,958.14,171.76L958.14,171.76z"/>
	<path class="st13" d="M973.87,167.37l0.05-0.05v-8.54c0-1.86-1.29-2.15-1.97-2.15h-0.51v-0.68c1.07,0,2.11,0.09,3.19,0.09
		c0.93,0,1.86-0.09,2.81-0.09v0.68h-0.35c-0.96,0-2.02,0.17-2.02,2.89v10.35c0,0.79,0.02,1.59,0.14,2.3h-0.87l-11.74-13.05v9.37
		c0,1.97,0.38,2.67,2.13,2.67h0.38v0.69c-0.98,0-1.96-0.09-2.94-0.09c-1.03,0-2.07,0.09-3.09,0.09v-0.69h0.32
		c1.58,0,2.05-1.07,2.05-2.89v-9.6c0-1.28-1.06-2.05-2.07-2.05h-0.3v-0.68c0.87,0,1.75,0.09,2.62,0.09c0.68,0,1.34-0.09,2.02-0.09
		L973.87,167.37L973.87,167.37z"/>
	<path class="st13" d="M975.18,172.3l-0.93-0.03l-11.55-12.88v9.12c0.03,1.97,0.33,2.54,2.04,2.56h0.49v0.09v0.79h-0.09
		c-0.98,0-1.97-0.09-2.94-0.09c-1.03,0-2.07,0.09-3.09,0.09H959v-0.09v-0.79h0.09h0.32c1.5,0,1.94-0.98,1.96-2.79v-9.58
		c0-1.22-0.99-1.94-1.97-1.96H959v-0.09v-0.77h0.09c0.87,0,1.77,0.08,2.62,0.08c0.68,0,1.34-0.08,2.1-0.05l10.01,11.27v-8.36
		c-0.02-1.81-1.22-2.04-1.88-2.05h-0.6v-0.09v-0.77h0.09c1.07,0,2.13,0.08,3.19,0.08c0.93,0,1.86-0.08,2.79-0.08h0.09v0.09v0.77
		h-0.09h-0.35c-0.95,0.03-1.91,0.11-1.93,2.79v10.35c0,0.79,0.02,1.59,0.13,2.29l0.02,0.11H975.18L975.18,172.3z M974.31,172.09
		L974.31,172.09h0.76c-0.09-0.68-0.13-1.44-0.13-2.19v-10.35c0-2.73,1.15-2.98,2.13-2.98h0.24v-0.49c-0.9,0-1.8,0.09-2.7,0.09
		c-1.04,0-2.05-0.08-3.08-0.09v0.49h0.39c0.69,0,2.08,0.32,2.08,2.24l-0.03,8.6l-0.05,0.05l-0.08,0.08l-10.12-11.44
		c-0.68,0-1.34,0.09-2.02,0.09c-0.84,0-1.69-0.08-2.51-0.09v0.49h0.21c1.07,0,2.16,0.82,2.16,2.15v9.58c0,1.81-0.51,2.98-2.15,2.98
		h-0.22v0.49c0.99-0.02,2-0.09,3-0.09c0.95,0,1.89,0.08,2.84,0.09v-0.49h-0.28c-1.8,0-2.24-0.79-2.24-2.76v-9.63L974.31,172.09
		L974.31,172.09z M973.87,167.37L973.87,167.37l0.08-0.06L973.87,167.37z M973.81,167.33L973.81,167.33L973.81,167.33l-0.02-0.03
		L973.81,167.33z"/>
	<path class="st13" d="M980.82,157.1c-1.7,0-1.77,0.41-2.11,2.07h-0.68c0.09-0.63,0.21-1.28,0.27-1.94
		c0.09-0.63,0.14-1.28,0.14-1.93h0.55c0.19,0.68,0.76,0.66,1.37,0.66h11.74c0.62,0,1.18-0.02,1.23-0.71l0.54,0.09
		c-0.09,0.62-0.17,1.23-0.25,1.85c-0.05,0.62-0.05,1.23-0.05,1.85l-0.68,0.25c-0.05-0.84-0.16-2.19-1.69-2.19h-3.74v12.1
		c0,1.75,0.8,1.96,1.89,1.96h0.44v0.69c-0.88,0-2.48-0.09-3.71-0.09c-1.36,0-2.97,0.09-3.85,0.09v-0.69h0.44
		c1.26,0,1.89-0.11,1.89-1.91V157.1L980.82,157.1L980.82,157.1z"/>
	<path class="st13" d="M989.8,171.95c-0.9,0-2.49-0.09-3.71-0.09c-1.36,0-2.95,0.09-3.85,0.09h-0.09v-0.09v-0.79h0.09h0.44
		c1.26-0.03,1.75-0.05,1.78-1.81V157.2h-3.63v-0.09v-0.09h3.84v12.26c0,1.83-0.74,2-1.99,2.02h-0.35v0.47c0.9,0,2.43-0.08,3.76-0.08
		c1.18,0,2.71,0.08,3.61,0.08v-0.47h-0.33c-1.1,0-1.99-0.27-1.99-2.05v-12.22h3.84c1.53,0,1.72,1.31,1.78,2.15l0.49-0.17
		c0-0.6,0-1.18,0.05-1.78c0.06-0.58,0.16-1.17,0.24-1.75l-0.35-0.06c-0.11,0.66-0.74,0.69-1.31,0.69h-11.74h-0.13
		c-0.54,0-1.12-0.03-1.33-0.66h-0.38c0,0.63-0.05,1.25-0.14,1.85c-0.06,0.63-0.17,1.23-0.25,1.83h0.49c0.3-1.59,0.49-2.1,2.19-2.08
		v0.09v0.09c-1.69,0.03-1.64,0.32-2.02,1.99l-0.02,0.08h-0.08h-0.8l0.02-0.13c0.09-0.63,0.21-1.28,0.27-1.94
		c0.09-0.63,0.14-1.26,0.14-1.91v-0.09h0.09h0.63l0.02,0.08c0.16,0.57,0.58,0.58,1.15,0.58h0.13h11.74
		c0.63-0.02,1.09-0.02,1.14-0.62l0.02-0.11l0.11,0.02l0.65,0.09l-0.02,0.09c-0.09,0.62-0.17,1.23-0.25,1.83
		c-0.05,0.6-0.05,1.22-0.05,1.83v0.08l-0.06,0.03l-0.8,0.3v-0.13c-0.06-0.85-0.16-2.1-1.59-2.1h-3.63v12.01
		c0.02,1.72,0.69,1.83,1.78,1.86h0.54v0.09v0.79H989.8L989.8,171.95z"/>
	<path class="st13" d="M994.59,171.16h0.32c0.82,0,1.69-0.11,1.69-1.29v-11.93c0-1.18-0.87-1.29-1.69-1.29h-0.32v-0.68
		c1.39,0,3.76,0.09,5.67,0.09c1.91,0,4.28-0.09,5.82-0.09c-0.03,0.98-0.02,2.48,0.05,3.49l-0.68,0.19
		c-0.11-1.48-0.38-2.67-2.78-2.67h-3.16v5.97h2.7c1.36,0,1.66-0.77,1.8-2h0.68c-0.05,0.88-0.06,1.78-0.06,2.67
		c0,0.87,0.03,1.74,0.06,2.59l-0.68,0.14c-0.13-1.36-0.21-2.26-1.78-2.26h-2.73v5.3c0,1.48,1.31,1.48,2.78,1.48
		c2.73,0,3.93-0.19,4.62-2.78l0.63,0.16c-0.3,1.22-0.57,2.41-0.77,3.63c-1.45,0-4.07-0.09-6.12-0.09c-2.05,0-4.75,0.09-6.06,0.09
		L994.59,171.16L994.59,171.16z"/>
	<path class="st13" d="M1006.76,171.95c-1.47,0-4.07-0.09-6.12-0.09c-2.05,0-4.75,0.09-6.06,0.09h-0.09v-0.09v-0.69v-0.09h0.09h0.32
		c0.82-0.02,1.58-0.08,1.58-1.2v-11.93c-0.02-1.1-0.76-1.18-1.58-1.2h-0.41v-0.09v-0.79h0.09c1.39,0,3.76,0.08,5.67,0.08
		s4.28-0.08,5.82-0.08h0.11v0.09c-0.02,0.35-0.02,0.74-0.02,1.18c0,0.79,0.02,1.64,0.06,2.29v0.08l-0.08,0.02l-0.8,0.21v-0.11
		c-0.13-1.48-0.33-2.54-2.67-2.57h-3.06v5.76h2.62c1.31-0.02,1.55-0.68,1.7-1.91l0.02-0.09h0.09h0.79v0.09
		c-0.05,0.88-0.08,1.77-0.08,2.67c0,0.87,0.03,1.72,0.08,2.59v0.08l-0.08,0.02l-0.79,0.16l-0.02-0.11
		c-0.16-1.39-0.17-2.15-1.67-2.16h-2.64v5.21c0,1.39,1.2,1.37,2.68,1.39c2.75-0.02,3.84-0.14,4.53-2.7l0.02-0.09l0.09,0.02
		l0.73,0.19l-0.02,0.09c-0.3,1.2-0.57,2.41-0.77,3.61l-0.02,0.08L1006.76,171.95L1006.76,171.95z M1006.68,171.76L1006.68,171.76
		c0.21-1.15,0.46-2.3,0.74-3.44l-0.44-0.11c-0.68,2.54-2,2.78-4.69,2.76c-1.44,0-2.87,0-2.87-1.58V164h2.83
		c1.59-0.02,1.75,0.95,1.86,2.24l0.49-0.09c-0.05-0.84-0.06-1.67-0.06-2.51c0-0.85,0.02-1.7,0.06-2.57h-0.49
		c-0.13,1.18-0.51,2.02-1.88,2h-2.81v-6.15h3.27c2.37-0.02,2.76,1.2,2.86,2.64l0.49-0.13c-0.05-0.65-0.06-1.47-0.06-2.23
		c0-0.39,0.02-0.76,0.02-1.07c-1.55,0-3.85,0.09-5.73,0.09c-1.86,0-4.17-0.08-5.57-0.09v0.49h0.22c0.8,0,1.78,0.14,1.78,1.4v11.93
		c0,1.26-0.98,1.39-1.78,1.4h-0.22v0.47c1.33,0,3.96-0.08,5.95-0.08C1002.66,171.67,1005.21,171.75,1006.68,171.76L1006.68,171.76z"
		/>
	<path class="st13" d="M1010.61,158.38c0-1.66-0.92-1.74-1.63-1.74h-0.41v-0.68c0.73,0,2.13,0.09,3.52,0.09
		c1.37,0,2.46-0.09,3.66-0.09c2.87,0,5.41,0.77,5.41,4.01c0,2.05-1.37,3.3-3.16,4.01l3.9,5.82c0.63,0.96,1.09,1.23,2.21,1.36v0.69
		c-0.76,0-1.48-0.09-2.23-0.09c-0.71,0-1.44,0.09-2.15,0.09c-1.75-2.3-3.25-4.75-4.73-7.39h-1.5v4.88c0,1.75,0.82,1.81,1.86,1.81
		h0.41v0.69c-1.29,0-2.62-0.09-3.91-0.09c-1.09,0-2.16,0.09-3.3,0.09v-0.69h0.41c0.85,0,1.63-0.38,1.63-1.23V158.38L1010.61,158.38z
		 M1013.53,163.67L1013.53,163.67h1.1c2.27,0,3.5-0.87,3.5-3.55c0-2.02-1.29-3.31-3.33-3.31c-0.68,0-0.98,0.08-1.29,0.09
		L1013.53,163.67L1013.53,163.67z"/>
	<path class="st13" d="M1024.14,171.95c-0.76,0-1.48-0.09-2.24-0.09c-0.69,0-1.42,0.09-2.21,0.05c-1.75-2.29-3.24-4.73-4.72-7.34
		h-1.34v4.77c0.03,1.72,0.71,1.7,1.77,1.72h0.51v0.09v0.79h-0.09c-1.29,0-2.62-0.09-3.91-0.09c-1.09,0-2.16,0.09-3.3,0.09h-0.09
		v-0.09v-0.79h0.09h0.41c0.82,0,1.52-0.36,1.52-1.12v-11.57c-0.02-1.61-0.8-1.61-1.52-1.63h-0.51v-0.09v-0.79h0.09
		c0.74,0,2.15,0.09,3.52,0.09c1.36,0,2.45-0.09,3.66-0.09c2.87,0,5.51,0.8,5.52,4.1c0,2.05-1.36,3.35-3.11,4.06l3.82,5.73
		c0.63,0.95,1.03,1.18,2.15,1.33l0.08,0.02v0.08v0.79H1024.14L1024.14,171.95z M1013.53,164.38L1013.53,164.38h1.56l0.03,0.05
		c1.48,2.62,2.98,5.07,4.66,7.32c0.69,0,1.42-0.09,2.13-0.09c0.73,0,1.42,0.08,2.13,0.09v-0.51c-1.07-0.13-1.56-0.46-2.19-1.4
		l-3.96-5.93l0.11-0.05c1.78-0.69,3.09-1.91,3.09-3.91c0-3.16-2.46-3.88-5.32-3.9c-1.2,0-2.29,0.09-3.66,0.09
		c-1.34,0-2.68-0.08-3.42-0.09v0.49h0.32c0.71,0,1.72,0.13,1.72,1.83v11.57c0,0.92-0.85,1.33-1.72,1.33h-0.32v0.47
		c1.09,0,2.13-0.09,3.2-0.09c1.28,0,2.56,0.08,3.82,0.09v-0.47h-0.32c-1.04,0-1.96-0.13-1.96-1.93v-4.97h0.09V164.38z
		 M1013.53,163.76L1013.53,163.76h-0.09v-6.98h0.08c0.32-0.02,0.62-0.09,1.31-0.09c2.07,0,3.42,1.34,3.42,3.42
		c0,2.71-1.31,3.65-3.6,3.65H1013.53L1013.53,163.76z M1014.64,163.56L1014.64,163.56c2.26-0.02,3.39-0.8,3.41-3.44
		c-0.02-1.99-1.25-3.22-3.24-3.24c-0.62,0-0.9,0.06-1.2,0.08v6.6H1014.64L1014.64,163.56z"/>
	<path class="st13" d="M1039.59,167.37l0.05-0.05v-8.54c0-1.86-1.29-2.15-1.97-2.15h-0.51v-0.68c1.07,0,2.11,0.09,3.19,0.09
		c0.93,0,1.86-0.09,2.81-0.09v0.68h-0.35c-0.96,0-2.02,0.17-2.02,2.89v10.35c0,0.79,0.02,1.59,0.13,2.3h-0.87l-11.73-13.07v9.37
		c0,1.97,0.38,2.67,2.13,2.67h0.39v0.69c-0.98,0-1.96-0.09-2.94-0.09c-1.03,0-2.07,0.09-3.09,0.09v-0.69h0.32
		c1.58,0,2.05-1.07,2.05-2.89v-9.6c0-1.28-1.04-2.05-2.07-2.05h-0.3v-0.68c0.87,0,1.75,0.09,2.62,0.09c0.68,0,1.34-0.09,2.02-0.09
		L1039.59,167.37L1039.59,167.37z"/>
	<path class="st13" d="M1040.9,172.3l-0.93-0.03l-11.55-12.88v9.12c0.03,1.97,0.33,2.54,2.04,2.57h0.49v0.09v0.79h-0.09
		c-0.98,0-1.96-0.09-2.94-0.09c-1.01,0-2.07,0.09-3.09,0.09h-0.11v-0.09v-0.79h0.11h0.32c1.5,0,1.94-0.98,1.94-2.79v-9.58
		c0-1.22-0.99-1.94-1.97-1.96h-0.39v-0.09v-0.79h0.11c0.87,0,1.75,0.09,2.62,0.09c0.66,0,1.33-0.09,2.1-0.06l10.01,11.27v-8.38
		c0-1.81-1.22-2.04-1.88-2.04h-0.6v-0.09v-0.79h0.09c1.07,0,2.13,0.09,3.19,0.09c0.93,0,1.86-0.09,2.79-0.09h0.09v0.09v0.77h-0.09
		h-0.33c-0.93,0.03-1.91,0.11-1.93,2.79v10.35c0,0.79,0.02,1.58,0.14,2.29l0.02,0.11L1040.9,172.3L1040.9,172.3z M1040.03,172.09
		L1040.03,172.09h0.74c-0.09-0.68-0.13-1.44-0.13-2.19v-10.35c0-2.73,1.15-2.98,2.13-3h0.24v-0.47c-0.9,0-1.8,0.09-2.7,0.09
		c-1.04,0-2.07-0.08-3.09-0.09v0.47h0.41c0.69,0,2.08,0.32,2.08,2.24l-0.03,8.6l-0.05,0.05l-0.06,0.08l-10.13-11.44
		c-0.68,0-1.34,0.09-2.02,0.09c-0.84,0-1.69-0.08-2.53-0.09v0.47h0.21c1.07,0,2.16,0.82,2.16,2.15v9.58c0,1.83-0.52,3-2.15,3h-0.22
		v0.47c0.98,0,2-0.08,3-0.08c0.96,0,1.89,0.08,2.84,0.08v-0.47h-0.28c-1.8,0-2.24-0.79-2.24-2.76v-9.63L1040.03,172.09
		L1040.03,172.09z M1039.59,167.37L1039.59,167.37l0.06-0.06L1039.59,167.37z M1039.52,167.33L1039.52,167.33L1039.52,167.33
		l-0.02-0.03L1039.52,167.33z"/>
	<path class="st13" d="M1046.8,168.61c-0.24,0.77-0.51,1.37-0.51,1.77c0,0.68,0.96,0.79,1.7,0.79h0.25v0.69
		c-0.92-0.05-1.85-0.09-2.76-0.09c-0.82,0-1.63,0.05-2.45,0.09v-0.69h0.14c0.88,0,1.64-0.52,1.97-1.48l3.65-10.45
		c0.3-0.84,0.71-1.97,0.85-2.82c0.73-0.25,1.64-0.71,2.07-0.98c0.06-0.02,0.11-0.05,0.19-0.05c0.06,0,0.11,0,0.16,0.08
		c0.06,0.17,0.13,0.39,0.21,0.57l4.18,11.9c0.27,0.79,0.54,1.64,0.84,2.32c0.27,0.63,0.76,0.92,1.5,0.92h0.13v0.69
		c-1.03-0.05-2.05-0.09-3.14-0.09c-1.12,0-2.26,0.05-3.42,0.09v-0.69h0.25c0.52,0,1.4-0.09,1.4-0.66c0-0.3-0.21-0.92-0.46-1.64
		l-0.88-2.64h-5.16L1046.8,168.61L1046.8,168.61z M1050.11,158.52L1050.11,158.52h-0.05l-2.11,6.44h4.26L1050.11,158.52z"/>
	<path class="st13" d="M1058.92,171.95c-1.03-0.05-2.05-0.09-3.12-0.09c-1.12,0-2.26,0.05-3.41,0.09h-0.11v-0.09v-0.79h0.09h0.25
		c0.52,0,1.31-0.13,1.31-0.55c0-0.25-0.21-0.88-0.44-1.61l-0.87-2.57h-5.02l-0.71,2.3c-0.24,0.77-0.51,1.37-0.51,1.75
		c0,0.55,0.85,0.69,1.61,0.69h0.35v0.09v0.79h-0.11c-0.92-0.05-1.85-0.09-2.75-0.09c-0.82,0-1.64,0.05-2.45,0.09h-0.11v-0.09v-0.79
		h0.09h0.14c0.85,0,1.55-0.49,1.88-1.4l3.65-10.45c0.3-0.85,0.71-1.97,0.9-2.89c0.71-0.24,1.63-0.69,2.07-0.98
		c0.06-0.02,0.13-0.05,0.22-0.05c0.05,0,0.17,0.02,0.25,0.13c0.06,0.19,0.14,0.39,0.21,0.57l4.2,11.9c0.27,0.8,0.54,1.64,0.84,2.3
		c0.27,0.62,0.68,0.85,1.42,0.85h0.24v0.09v0.79H1058.92L1058.92,171.95z M1052.47,171.75L1052.47,171.75
		c1.12-0.05,2.23-0.08,3.31-0.08c1.06,0,2.05,0.05,3.03,0.08v-0.47h-0.03c-0.77,0-1.31-0.3-1.59-0.98c-0.3-0.69-0.57-1.53-0.84-2.34
		l-4.2-11.9c-0.06-0.17-0.14-0.39-0.19-0.55c-0.02-0.02-0.02-0.02-0.03-0.02h-0.05c-0.05,0-0.08,0.02-0.13,0.03
		c-0.44,0.28-1.36,0.73-2.02,0.92c-0.14,0.87-0.55,2-0.85,2.84l-3.65,10.45c-0.35,0.99-1.15,1.55-2.07,1.55h-0.03v0.47
		c0.77-0.05,1.56-0.08,2.35-0.08c0.88,0,1.78,0.05,2.65,0.08v-0.47H1048c-0.74-0.02-1.78-0.09-1.8-0.9c0-0.46,0.28-1.04,0.51-1.8
		l0.09,0.03l-0.09-0.03l0.76-2.43h5.3l0.92,2.7c0.25,0.73,0.46,1.34,0.46,1.67c-0.03,0.69-0.99,0.74-1.52,0.76h-0.16V171.75
		L1052.47,171.75z M1047.81,165.05L1047.81,165.05l2.18-6.64h0.08h0.05v0.09h-0.03h0.03v-0.09h0.06l2.16,6.64H1047.81z
		 M1048.09,164.87L1048.09,164.87h3.98l-1.99-6.09L1048.09,164.87z M1050.02,158.55L1050.02,158.55l0.05-0.02L1050.02,158.55z"/>
	<path class="st13" d="M1059.93,157.1c-1.7,0-1.78,0.41-2.11,2.07h-0.68c0.09-0.63,0.21-1.28,0.28-1.94
		c0.09-0.63,0.13-1.28,0.13-1.93h0.55c0.19,0.68,0.76,0.66,1.36,0.66h11.74c0.62,0,1.18-0.02,1.23-0.71l0.54,0.09
		c-0.09,0.62-0.17,1.23-0.25,1.85c-0.05,0.62-0.05,1.23-0.05,1.85l-0.68,0.25c-0.05-0.84-0.16-2.19-1.69-2.19h-3.74v12.1
		c0,1.75,0.8,1.96,1.89,1.96h0.43v0.69c-0.88,0-2.48-0.09-3.71-0.09c-1.36,0-2.97,0.09-3.85,0.09v-0.69h0.43
		c1.25,0,1.89-0.11,1.89-1.91V157.1L1059.93,157.1L1059.93,157.1z"/>
	<path class="st13" d="M1068.89,171.95c-0.9,0-2.49-0.09-3.71-0.09c-1.36,0-2.95,0.09-3.85,0.09h-0.09v-0.09v-0.79h0.09h0.43
		c1.25-0.03,1.75-0.05,1.78-1.81V157.2h-3.63v-0.09v-0.09h3.83v12.26c0,1.83-0.74,2-1.99,2h-0.33v0.49c0.9-0.02,2.43-0.09,3.76-0.09
		c1.18,0,2.71,0.08,3.61,0.09v-0.49h-0.33c-1.09,0-1.99-0.27-1.99-2.05v-12.22h3.84c1.53,0,1.72,1.31,1.77,2.15l0.51-0.17
		c0-0.6,0-1.18,0.05-1.78c0.06-0.58,0.14-1.17,0.24-1.75l-0.35-0.06c-0.11,0.66-0.74,0.69-1.31,0.69h-11.74h-0.11
		c-0.54,0-1.12-0.03-1.33-0.66h-0.38c0,0.63-0.05,1.25-0.14,1.85c-0.06,0.63-0.17,1.23-0.25,1.83h0.49c0.3-1.59,0.51-2.1,2.19-2.08
		v0.09v0.09c-1.69,0.03-1.64,0.32-2.02,1.99l-0.02,0.08h-0.08h-0.8l0.02-0.11c0.09-0.65,0.21-1.28,0.27-1.94
		c0.09-0.63,0.14-1.26,0.14-1.93v-0.08h0.09h0.62l0.02,0.08c0.16,0.57,0.57,0.58,1.15,0.58h0.11h11.74
		c0.63-0.02,1.09-0.02,1.12-0.62v-0.11l0.11,0.02l0.65,0.09l-0.02,0.09c-0.09,0.62-0.17,1.23-0.25,1.83
		c-0.05,0.6-0.05,1.23-0.05,1.83v0.08l-0.06,0.03l-0.8,0.3v-0.13c-0.06-0.85-0.14-2.1-1.59-2.1h-3.63v12.01
		c0.03,1.72,0.71,1.83,1.78,1.86h0.54v0.09v0.79H1068.89L1068.89,171.95z"/>
	<path class="st13" d="M1073.8,171.16h0.32c0.82,0,1.69-0.11,1.69-1.29v-11.93c0-1.18-0.85-1.29-1.69-1.29h-0.32v-0.68
		c0.88,0,2.26,0.09,3.36,0.09c1.14,0,2.51-0.09,3.58-0.09v0.68h-0.32c-0.82,0-1.69,0.11-1.69,1.29v11.93c0,1.18,0.87,1.29,1.69,1.29
		h0.32v0.69c-1.09,0-2.46-0.09-3.6-0.09c-1.12,0-2.46,0.09-3.35,0.09V171.16L1073.8,171.16z"/>
	<path class="st13" d="M1080.75,171.95c-1.1,0-2.46-0.09-3.6-0.09c-1.12,0-2.46,0.09-3.35,0.09h-0.09v-0.09v-0.69v-0.09h0.09h0.32
		c0.82-0.02,1.58-0.08,1.58-1.2v-11.93c0-1.1-0.76-1.18-1.58-1.2h-0.43v-0.09v-0.79h0.09c0.88,0,2.26,0.08,3.36,0.08
		c1.14,0,2.49-0.08,3.58-0.08h0.09v0.09v0.77h-0.09h-0.32c-0.84,0.02-1.58,0.09-1.59,1.2v11.93c0.02,1.12,0.76,1.18,1.59,1.2h0.41
		v0.09v0.79L1080.75,171.95L1080.75,171.95z M1080.64,171.76L1080.64,171.76v-0.49h-0.22c-0.82,0-1.78-0.14-1.78-1.4v-11.93
		c0-1.26,0.96-1.4,1.78-1.4h0.22v-0.49c-1.06,0-2.37,0.09-3.47,0.09c-1.07,0-2.38-0.08-3.27-0.09v0.49h0.22
		c0.8,0,1.78,0.14,1.78,1.4v11.93c0,1.25-0.98,1.4-1.78,1.4h-0.22v0.49c0.88-0.02,2.16-0.09,3.25-0.09
		C1078.25,171.67,1079.56,171.75,1080.64,171.76L1080.64,171.76z"/>
	<path class="st13" d="M1089.82,155.63c4.85,0,8.71,3.01,8.71,7.86c0,5.24-3.76,8.71-8.6,8.71c-4.83,0-8.51-3.28-8.51-8.18
		C1081.43,159.29,1085.09,155.63,1089.82,155.63L1089.82,155.63z M1090.17,171.19L1090.17,171.19c4.42,0,5.18-3.9,5.18-7.21
		c0-3.33-1.8-7.35-5.57-7.35c-3.98,0-5.16,3.55-5.16,6.6C1084.61,167.3,1086.48,171.19,1090.17,171.19L1090.17,171.19z"/>
	<path class="st13" d="M1081.33,164.03c0.02-4.78,3.71-8.49,8.49-8.51v0.09v0.09c-4.67,0-8.3,3.61-8.3,8.3
		c0.02,4.85,3.65,8.06,8.43,8.06c4.8,0,8.49-3.44,8.51-8.62c0-4.78-3.82-7.75-8.62-7.75v-0.09v-0.09c4.89,0,8.81,3.05,8.82,7.95
		c0,5.29-3.8,8.81-8.7,8.82C1085.07,172.28,1081.33,168.97,1081.33,164.03L1081.33,164.03L1081.33,164.03z M1084.52,163.22
		L1084.52,163.22c0-3.06,1.2-6.71,5.27-6.71c3.87,0.02,5.67,4.12,5.67,7.46c0,3.31-0.79,7.31-5.29,7.31v-0.09v-0.09
		c4.32,0,5.08-3.8,5.08-7.12c0-3.3-1.78-7.24-5.48-7.26c-3.9,0-5.07,3.47-5.07,6.5c0,4.06,1.85,7.86,5.46,7.88v0.09v0.09
		C1086.38,171.29,1084.52,167.33,1084.52,163.22L1084.52,163.22z"/>
	<path class="st13" d="M1113.87,167.37l0.05-0.05v-8.54c0-1.86-1.29-2.15-1.99-2.15h-0.49v-0.68c1.07,0,2.11,0.09,3.19,0.09
		c0.93,0,1.86-0.09,2.81-0.09v0.68h-0.35c-0.95,0-2.02,0.17-2.02,2.89v10.35c0,0.79,0.02,1.59,0.14,2.3h-0.87l-11.73-13.07v9.37
		c0,1.97,0.38,2.67,2.13,2.67h0.39v0.69c-0.98,0-1.96-0.09-2.94-0.09c-1.03,0-2.07,0.09-3.09,0.09v-0.69h0.32
		c1.58,0,2.05-1.07,2.05-2.89v-9.6c0-1.28-1.04-2.05-2.07-2.05h-0.3v-0.68c0.87,0,1.75,0.09,2.62,0.09c0.68,0,1.34-0.09,2.02-0.09
		L1113.87,167.37L1113.87,167.37z"/>
	<path class="st13" d="M1115.2,172.3l-0.95-0.03l-11.55-12.88v9.12c0.03,1.97,0.33,2.54,2.04,2.56h0.49v0.09v0.79h-0.09
		c-0.99,0-1.96-0.09-2.94-0.09c-1.03,0-2.07,0.09-3.09,0.09h-0.09v-0.09v-0.79h0.09h0.32c1.5,0,1.93-0.96,1.96-2.78v-9.6
		c0-1.22-0.99-1.94-1.97-1.96h-0.39v-0.09v-0.79h0.09c0.87,0,1.77,0.09,2.62,0.09c0.68,0,1.33-0.09,2.1-0.05l10.01,11.27v-8.36
		c0-1.81-1.22-2.04-1.88-2.05h-0.6v-0.09v-0.79h0.11c1.07,0,2.11,0.08,3.17,0.08c0.93,0,1.86-0.08,2.81-0.08h0.09v0.09v0.77h-0.09
		h-0.35c-0.93,0.03-1.91,0.11-1.93,2.79v10.35c0,0.79,0.02,1.59,0.13,2.29l0.02,0.11L1115.2,172.3L1115.2,172.3z M1114.33,172.09
		L1114.33,172.09h0.74c-0.09-0.68-0.11-1.44-0.11-2.19v-10.35c0-2.73,1.15-2.98,2.13-3h0.25v-0.47c-0.9,0-1.8,0.09-2.71,0.09
		c-1.04,0-2.05-0.08-3.08-0.09v0.47h0.39c0.71,0,2.08,0.32,2.08,2.24l-0.03,8.6l-0.05,0.05l-0.08,0.08l-10.13-11.44
		c-0.68,0-1.34,0.09-2.02,0.09c-0.84,0-1.69-0.08-2.53-0.09v0.47h0.21c1.07,0,2.16,0.82,2.16,2.15v9.6c0,1.81-0.51,2.98-2.15,3
		h-0.22v0.49c0.99,0,2-0.08,3-0.08c0.95,0,1.89,0.08,2.84,0.08v-0.47h-0.3c-1.78,0-2.23-0.79-2.23-2.76v-9.63L1114.33,172.09
		L1114.33,172.09z M1113.87,167.37L1113.87,167.37l0.08-0.06L1113.87,167.37z M1113.83,167.33L1113.83,167.33L1113.83,167.33
		l-0.02-0.03L1113.83,167.33z"/>
	<path class="st13" d="M1121.09,168.61c-0.22,0.77-0.51,1.37-0.51,1.77c0,0.68,0.96,0.79,1.7,0.79h0.25v0.69
		c-0.92-0.05-1.85-0.09-2.76-0.09c-0.82,0-1.64,0.05-2.46,0.09v-0.69h0.13c0.9,0,1.64-0.52,1.99-1.48l3.65-10.45
		c0.3-0.84,0.71-1.97,0.84-2.82c0.73-0.25,1.64-0.71,2.07-0.98c0.06-0.02,0.11-0.05,0.17-0.05s0.11,0,0.16,0.08
		c0.06,0.17,0.14,0.39,0.21,0.57l4.18,11.9c0.27,0.79,0.55,1.64,0.84,2.32c0.27,0.63,0.76,0.92,1.5,0.92h0.14v0.69
		c-1.03-0.05-2.05-0.09-3.14-0.09c-1.12,0-2.26,0.05-3.41,0.09v-0.69h0.25c0.52,0,1.4-0.09,1.4-0.66c0-0.3-0.21-0.92-0.46-1.64
		l-0.88-2.64h-5.16L1121.09,168.61L1121.09,168.61z M1124.42,158.52L1124.42,158.52h-0.05l-2.11,6.44h4.26L1124.42,158.52z"/>
	<path class="st13" d="M1133.21,171.95c-1.03-0.05-2.05-0.09-3.14-0.09c-1.1,0-2.26,0.05-3.41,0.09h-0.09v-0.11v-0.79h0.09h0.25
		c0.54,0,1.31-0.13,1.31-0.55c0-0.25-0.21-0.88-0.46-1.61l-0.87-2.57h-5.02l-0.71,2.3c-0.22,0.77-0.51,1.37-0.49,1.75
		c0,0.55,0.85,0.69,1.61,0.69h0.35v0.09v0.79h-0.09c-0.92-0.05-1.85-0.09-2.75-0.09c-0.82,0-1.64,0.05-2.46,0.09h-0.09v-0.11v-0.79
		h0.09h0.13c0.85,0,1.56-0.49,1.89-1.42l3.65-10.45c0.28-0.85,0.69-1.97,0.9-2.89c0.71-0.25,1.63-0.71,2.07-0.98
		c0.06-0.02,0.13-0.05,0.22-0.05c0.06,0,0.17,0,0.25,0.13c0.06,0.17,0.13,0.38,0.21,0.57l4.18,11.9c0.27,0.8,0.55,1.64,0.84,2.32
		c0.27,0.6,0.68,0.84,1.4,0.85h0.24v0.09v0.79L1133.21,171.95L1133.21,171.95z M1126.77,171.75L1126.77,171.75
		c1.12-0.05,2.24-0.08,3.31-0.08c1.06,0,2.05,0.05,3.05,0.08v-0.47h-0.03c-0.77,0-1.31-0.3-1.59-0.98c-0.3-0.69-0.57-1.53-0.84-2.34
		l-4.18-11.9c-0.06-0.17-0.14-0.39-0.19-0.54c-0.02-0.03-0.02-0.03-0.03-0.03h-0.05c-0.05,0-0.08,0.02-0.13,0.03
		c-0.44,0.28-1.36,0.73-2.04,0.92c-0.14,0.87-0.55,1.99-0.85,2.84l-3.65,10.45c-0.35,0.99-1.14,1.55-2.07,1.55h-0.03v0.47
		c0.79-0.05,1.56-0.08,2.35-0.08c0.88,0,1.78,0.05,2.65,0.08v-0.47h-0.16c-0.74-0.02-1.78-0.09-1.8-0.9c0-0.46,0.28-1.03,0.51-1.8
		l0.09,0.03l-0.09-0.03l0.76-2.43h5.3l0.92,2.7c0.25,0.73,0.46,1.34,0.46,1.67c-0.03,0.69-0.99,0.74-1.52,0.76h-0.14L1126.77,171.75
		L1126.77,171.75z M1122.11,165.05L1122.11,165.05l2.18-6.64h0.06h0.05v0.09h-0.03h0.03v-0.09h0.08l2.15,6.64H1122.11z
		 M1122.38,164.87L1122.38,164.87h3.98l-1.97-6.09L1122.38,164.87L1122.38,164.87z M1124.32,158.55L1124.32,158.55l0.05-0.02
		L1124.32,158.55z"/>
	<path class="st13" d="M1138.95,169.63c0,0.92,0.63,1.18,1.36,1.28c0.93,0.06,1.96,0.06,3.01-0.05c0.95-0.11,1.77-0.66,2.18-1.23
		c0.36-0.51,0.57-1.14,0.71-1.64h0.66c-0.25,1.29-0.57,2.57-0.84,3.87c-2,0-4.01-0.09-6.01-0.09c-2,0-4.01,0.09-6.01,0.09v-0.69
		h0.32c0.82,0,1.72-0.11,1.72-1.52v-11.69c0-1.18-0.88-1.29-1.72-1.29h-0.32v-0.68c1.2,0,2.38,0.09,3.6,0.09
		c1.17,0,2.3-0.09,3.46-0.09v0.68h-0.57c-0.87,0-1.55,0.03-1.55,1.23V169.63L1138.95,169.63z"/>
	<path class="st13" d="M1146.02,171.95c-2,0-4.01-0.09-6-0.09c-2,0-4.01,0.09-6.01,0.09h-0.09v-0.09v-0.79h0.09h0.32
		c0.82-0.02,1.61-0.08,1.61-1.42v-11.69c-0.02-1.1-0.79-1.18-1.61-1.2h-0.41v-0.09v-0.79h0.09c1.22,0,2.4,0.08,3.6,0.08
		c1.15,0,2.29-0.08,3.46-0.08h0.09v0.09v0.77h-0.09h-0.57c-0.88,0.03-1.44-0.02-1.45,1.14v11.74c0,0.85,0.57,1.07,1.28,1.18
		c0.39,0.03,0.82,0.05,1.26,0.05c0.55,0,1.14-0.03,1.72-0.09c0.93-0.11,1.72-0.65,2.11-1.18c0.35-0.49,0.55-1.1,0.69-1.61l0.02-0.08
		h0.08h0.79l-0.02,0.13c-0.25,1.31-0.57,2.57-0.85,3.87l-0.02,0.08L1146.02,171.95L1146.02,171.95L1146.02,171.95z M1145.94,171.76
		L1145.94,171.76c0.27-1.23,0.57-2.45,0.8-3.68h-0.47c-0.14,0.49-0.35,1.1-0.69,1.61c-0.43,0.58-1.26,1.15-2.26,1.26
		c-0.6,0.06-1.18,0.09-1.75,0.09c-0.44,0-0.87-0.02-1.28-0.05c-0.74-0.08-1.45-0.39-1.45-1.37v-11.74c0-1.26,0.8-1.33,1.64-1.33
		h0.47v-0.49c-1.12,0-2.23,0.09-3.36,0.09c-1.18,0-2.34-0.08-3.5-0.09v0.49h0.22c0.82,0,1.8,0.14,1.8,1.39v11.69
		c0,1.47-0.99,1.63-1.8,1.63h-0.22v0.47c1.97,0,3.93-0.08,5.92-0.08S1143.97,171.75,1145.94,171.76L1145.94,171.76z"/>
</g>
<g>
	<path class="st14" d="M1202.54,123.57h-13.32v46.65h13.32c7.02,0,12.19-1.7,16.63-5.41c5.33-4.44,8.47-11.06,8.47-17.92
		C1227.56,133.17,1217.31,123.57,1202.54,123.57z M1213.19,158.6c-2.82,2.58-6.54,3.71-12.43,3.71h-2.42v-30.83h2.42
		c5.89,0,9.44,1.05,12.43,3.79c3.15,2.83,5.01,7.1,5.01,11.62C1218.19,151.33,1216.34,155.77,1213.19,158.6z"/>
	<rect id="XMLID_7_" x="1231.75" y="123.57" class="st14" width="9.12" height="46.65"/>
	<path id="XMLID_6_" class="st14" d="M1263.07,141.49c-5.49-2.02-7.02-3.39-7.02-5.89c0-2.91,2.82-5.17,6.78-5.17
		c2.74,0,4.93,1.13,7.34,3.79l4.76-6.21c-3.87-3.39-8.56-5.17-13.72-5.17c-8.23,0-14.53,5.73-14.53,13.32
		c0,6.46,2.91,9.68,11.46,12.75c3.55,1.29,5.41,2.1,6.29,2.66c1.86,1.21,2.74,2.91,2.74,4.84c0,3.79-2.99,6.54-7.02,6.54
		c-4.36,0-7.83-2.18-9.92-6.21l-5.89,5.65c4.19,6.13,9.2,8.88,16.14,8.88c9.44,0,16.06-6.29,16.06-15.33
		C1276.55,148.59,1273.48,145.28,1263.07,141.49z"/>
	<path id="XMLID_5_" class="st14" d="M1279.37,146.9c0,13.72,10.74,24.29,24.61,24.29c3.87,0,7.26-0.81,11.38-2.74v-10.74
		c-3.63,3.63-6.86,5.09-10.98,5.09c-9.12,0-15.66-6.62-15.66-16.06c0-8.96,6.7-15.98,15.25-15.98c4.36,0,7.59,1.54,11.38,5.25
		v-10.74c-3.95-2.02-7.26-2.83-11.22-2.83C1290.42,122.52,1279.37,133.33,1279.37,146.9z"/>
	<polygon id="XMLID_4_" class="st14" points="1387.44,154.89 1375.01,123.57 1365.08,123.57 1384.93,171.43 1389.78,171.43 
		1409.96,123.57 1400.11,123.57 	"/>
	<polygon id="XMLID_3_" class="st14" points="1414.07,170.22 1439.82,170.22 1439.82,162.31 1423.11,162.31 1423.11,149.72 
		1439.17,149.72 1439.17,141.81 1423.11,141.81 1423.11,131.48 1439.82,131.48 1439.82,123.57 1414.07,123.57 	"/>
	<path class="st14" d="M1475.81,137.37c0-8.72-5.97-13.8-16.47-13.8h-13.48v46.65h9.12V151.5h1.21l12.59,18.72H1480l-14.69-19.61
		C1472.02,149.16,1475.81,144.47,1475.81,137.37z M1457.57,145.04h-2.66v-14.13h2.83c5.65,0,8.72,2.34,8.72,6.94
		C1466.45,142.53,1463.38,145.04,1457.57,145.04z"/>
	
		<linearGradient id="XMLID_9_" gradientUnits="userSpaceOnUse" x1="1093.7709" y1="1108.566" x2="1076.6008" y2="1081.6827" gradientTransform="matrix(1 0 0 1 262.0551 -941.628)">
		<stop  offset="0" style="stop-color:#F89F20"/>
		<stop  offset="0.2502" style="stop-color:#F79A20"/>
		<stop  offset="0.5331" style="stop-color:#F68D20"/>
		<stop  offset="0.6196" style="stop-color:#F58720"/>
		<stop  offset="0.7232" style="stop-color:#F48120"/>
		<stop  offset="1" style="stop-color:#F37521"/>
	</linearGradient>
	<circle id="XMLID_2_" class="st15" cx="1343.13" cy="147.06" r="24.77"/>
	
		<linearGradient id="XMLID_10_" gradientUnits="userSpaceOnUse" x1="1091.057" y1="1108.1992" x2="1065.9623" y2="1059.1504" gradientTransform="matrix(1 0 0 1 262.0551 -941.628)">
		<stop  offset="0" style="stop-color:#F58720"/>
		<stop  offset="0.3587" style="stop-color:#E16F27"/>
		<stop  offset="0.703" style="stop-color:#D4602C"/>
		<stop  offset="0.9816" style="stop-color:#D05B2E"/>
	</linearGradient>
	<circle id="XMLID_1_" class="st16" cx="1343.13" cy="147.06" r="24.77"/>
</g>
</svg>
