<?xml version="1.0" encoding="utf-8"?>
<!-- Generator: Adobe Illustrator 24.2.3, SVG Export Plug-In . SVG Version: 6.00 Build 0)  -->
<svg version="1.1" id="Layer_1" xmlns="http://www.w3.org/2000/svg" xmlns:xlink="http://www.w3.org/1999/xlink" x="0px" y="0px"
	 viewBox="0 0 512 512" style="enable-background:new 0 0 512 512;" xml:space="preserve">
<style type="text/css">
	.st0{fill:#F1F1F1;}
	.st1{fill:url(#XMLID_2_);}
	.st2{opacity:0.65;fill:url(#XMLID_3_);enable-background:new    ;}
</style>
<g id="XMLID_35_">
</g>
<g>
	<path class="st0" d="M23.15,215.18H0v81.08h23.15c12.2,0,21.18-2.95,28.9-9.4c9.26-7.71,14.73-19.22,14.73-31.14
		C66.63,231.87,48.82,215.18,23.15,215.18z M41.66,276.06c-4.91,4.49-11.36,6.45-21.6,6.45h-4.21v-53.58h4.21
		c10.24,0,16.41,1.82,21.6,6.59c5.47,4.91,8.7,12.34,8.7,20.2C50.36,263.43,47.13,271.15,41.66,276.06z"/>
	<rect id="XMLID_422_" x="73.92" y="215.18" class="st0" width="15.85" height="81.08"/>
	<path id="XMLID_421_" class="st0" d="M128.35,246.32c-9.54-3.51-12.2-5.89-12.2-10.24c0-5.05,4.91-8.98,11.78-8.98
		c4.77,0,8.56,1.96,12.76,6.59l8.28-10.8c-6.73-5.89-14.87-8.98-23.85-8.98c-14.31,0-25.25,9.96-25.25,23.15
		c0,11.22,5.05,16.83,19.92,22.16c6.17,2.24,9.4,3.65,10.94,4.63c3.23,2.1,4.77,5.05,4.77,8.42c0,6.59-5.19,11.36-12.2,11.36
		c-7.57,0-13.61-3.79-17.25-10.8l-10.24,9.82c7.29,10.66,15.99,15.43,28.05,15.43c16.41,0,27.91-10.94,27.91-26.65
		C151.78,258.67,146.45,252.91,128.35,246.32z"/>
	<path id="XMLID_420_" class="st0" d="M156.69,255.72c0,23.85,18.66,42.22,42.78,42.22c6.73,0,12.62-1.4,19.78-4.77v-18.66
		c-6.31,6.31-11.92,8.84-19.08,8.84c-15.85,0-27.21-11.5-27.21-27.91c0-15.57,11.64-27.77,26.51-27.77c7.57,0,13.19,2.67,19.78,9.12
		v-18.66c-6.87-3.51-12.62-4.91-19.5-4.91C175.9,213.36,156.69,232.15,156.69,255.72z"/>
	<polygon id="XMLID_419_" class="st0" points="344.51,269.61 322.91,215.18 305.66,215.18 340.16,298.36 348.58,298.36 
		383.65,215.18 366.54,215.18 	"/>
	<polygon id="XMLID_418_" class="st0" points="390.8,296.26 435.55,296.26 435.55,282.51 406.51,282.51 406.51,260.63 
		434.43,260.63 434.43,246.88 406.51,246.88 406.51,228.93 435.55,228.93 435.55,215.18 390.8,215.18 	"/>
	<path class="st0" d="M498.11,239.17c0-15.15-10.38-23.99-28.62-23.99h-23.43v81.08h15.85v-32.54h2.1l21.88,32.54h19.5l-25.53-34.09
		C491.52,259.65,498.11,251.51,498.11,239.17z M466.41,252.49h-4.63v-24.55h4.91c9.82,0,15.15,4.07,15.15,12.06
		C481.84,248.14,476.51,252.49,466.41,252.49z"/>
	
		<linearGradient id="XMLID_2_" gradientUnits="userSpaceOnUse" x1="289.5717" y1="870.5539" x2="259.7293" y2="823.8295" gradientTransform="matrix(1 0 0 1 0 -580)">
		<stop  offset="0" style="stop-color:#F89F20"/>
		<stop  offset="0.2502" style="stop-color:#F79A20"/>
		<stop  offset="0.5331" style="stop-color:#F68D20"/>
		<stop  offset="0.6196" style="stop-color:#F58720"/>
		<stop  offset="0.7232" style="stop-color:#F48120"/>
		<stop  offset="1" style="stop-color:#F37521"/>
	</linearGradient>
	<circle id="XMLID_415_" class="st1" cx="267.5" cy="256" r="43.06"/>
	
		<linearGradient id="XMLID_3_" gradientUnits="userSpaceOnUse" x1="284.8551" y1="869.9165" x2="241.2394" y2="784.6675" gradientTransform="matrix(1 0 0 1 0 -580)">
		<stop  offset="0" style="stop-color:#F58720"/>
		<stop  offset="0.3587" style="stop-color:#E16F27"/>
		<stop  offset="0.703" style="stop-color:#D4602C"/>
		<stop  offset="0.9816" style="stop-color:#D05B2E"/>
	</linearGradient>
	<circle id="XMLID_414_" class="st2" cx="267.5" cy="256" r="43.06"/>
</g>
</svg>
