<?xml version="1.0" encoding="utf-8"?>
<!-- Generator: Adobe Illustrator 24.2.3, SVG Export Plug-In . SVG Version: 6.00 Build 0)  -->
<svg version="1.1" id="Layer_1" xmlns="http://www.w3.org/2000/svg" xmlns:xlink="http://www.w3.org/1999/xlink" x="0px" y="0px"
	 viewBox="0 0 55 21" style="enable-background:new 0 0 55 21;" xml:space="preserve">
<style type="text/css">
	.st0{fill:#FFFFFF;}
	.st1{fill:#CB6500;}
</style>
<g id="g4158" transform="matrix(4.4299631,0,0,4.4299631,-81.165783,-105.04783)">
	<polygon id="polygon9" class="st0" points="23.63,27.91 22.63,27.91 23.23,24.21 24.23,24.21 	"/>
	<path id="path11" class="st0" d="M27.13,24.31c-0.2-0.1-0.5-0.2-0.9-0.2c-0.9,0-1.6,0.5-1.6,1.2c0,0.5,0.5,0.8,0.8,1
		c0.4,0.2,0.5,0.3,0.5,0.5s-0.3,0.4-0.6,0.4c-0.4,0-0.6-0.1-0.9-0.2l-0.1-0.1l-0.1,0.8c0.2,0.1,0.6,0.2,1.1,0.2c1,0,1.7-0.5,1.7-1.3
		c0-0.4-0.3-0.7-0.8-1c-0.3-0.2-0.5-0.3-0.5-0.5s0.2-0.3,0.5-0.3s0.5,0.1,0.7,0.1h0.1L27.13,24.31L27.13,24.31z"/>
	<path id="path13" class="st0" d="M28.33,26.61c0.1-0.2,0.4-1,0.4-1s0.1-0.2,0.1-0.4l0.1,0.3c0,0,0.2,0.9,0.2,1.1
		C29.03,26.61,28.53,26.61,28.33,26.61L28.33,26.61z M29.53,24.21h-0.7c-0.2,0-0.4,0.1-0.5,0.3l-1.4,3.4h1c0,0,0.2-0.5,0.2-0.6
		c0.1,0,1.1,0,1.2,0c0,0.1,0.1,0.6,0.1,0.6h0.9L29.53,24.21L29.53,24.21L29.53,24.21z"/>
	<path id="path15" class="st0" d="M21.83,24.21l-0.9,2.5l-0.1-0.5c-0.2-0.6-0.7-1.2-1.3-1.5l0.9,3.2h1l1.5-3.7H21.83L21.83,24.21
		L21.83,24.21z"/>
	<path id="path17" class="st1" d="M20.03,24.21h-1.5v0.1c1.2,0.3,2,1,2.3,1.9l-0.3-1.6C20.43,24.31,20.23,24.31,20.03,24.21
		L20.03,24.21z"/>
</g>
</svg>
