<?xml version="1.0" encoding="utf-8"?>
<!-- Generator: Adobe Illustrator 24.2.3, SVG Export Plug-In . SVG Version: 6.00 Build 0)  -->
<svg version="1.1" id="Layer_1" xmlns="http://www.w3.org/2000/svg" xmlns:xlink="http://www.w3.org/1999/xlink" x="0px" y="0px"
	 viewBox="0 0 12.23 13.83" style="enable-background:new 0 0 12.23 13.83;" xml:space="preserve">
<style type="text/css">
	.st0{fill:#FFFFFF;}
</style>
<g transform="translate(0.000000,1116.000000) scale(0.100000,-0.100000)">
	<path class="st0" d="M84.62,11159.77c-2.5-0.7-4.7-2.9-5.3-5.5c-0.2-1-0.2-2.7,0.1-3.7c0.1-0.4,0.8-1.8,1.5-3
		c8.4-15.2,13-30.5,14.5-47.8c0.3-3.5,0.3-13.9,0.1-17.1c-0.7-8.4-1.8-14.8-3.6-21.7c-2.5-9.4-5.9-17.7-10.7-26.5
		c-1.6-3-1.9-3.8-1.9-5.4c0-3.2,1.8-5.8,4.8-7c0.8-0.3,1.2-0.4,2.5-0.4c1.7,0,2.5,0.2,3.8,0.9c1.7,1,2.8,2.5,5.9,8.6
		c7.9,15.3,12.4,31.5,14,49.6c0.3,3.6,0.3,15.7,0.1,19.1c-1.3,15.9-4.7,29.6-10.6,43.3c-1.3,3.1-4.3,9.1-5.9,11.8
		c-1.7,3-3,4.2-5.3,4.8C87.42,11160.08,85.62,11160.08,84.62,11159.77z"/>
	<path class="st0" d="M57.62,11146.17c-2.7-0.6-5-3.1-5.5-5.7c-0.4-2-0.1-3.4,1.1-5.6c4.4-8.1,7.1-14.9,9-22.6
		c1.7-6.9,2.5-12.7,2.6-20c0.1-4.6,0-7.4-0.5-11.6c-1.3-11.5-5-23.1-10.7-33.2c-1.2-2.1-1.5-2.9-1.6-4.3c-0.3-3.7,2.2-7,5.9-7.8
		c1.2-0.2,1.8-0.2,3,0c1.4,0.3,2.7,1,3.7,2c1,1,2.3,3.1,4.5,7.7c6.1,12.4,9.5,25.1,10.5,39.3c0.2,2.6,0.2,10.3,0,13.1
		c-0.9,14.1-4.5,27.4-10.7,39.8c-2.3,4.7-3.1,6-4.2,7.1C62.72,11146.08,60.12,11146.77,57.62,11146.17z"/>
	<path class="st0" d="M31.82,11133.77c-2-0.4-3.9-1.9-4.9-3.6c-1.3-2.5-1.3-4.8,0.1-7.4c0.4-0.7,1.2-2.3,1.8-3.5
		c6.6-13.5,8.2-29.2,4.4-43.9c-1.2-4.7-2.5-8.2-5.1-13.3c-1.7-3.5-1.9-3.9-2.1-4.9c-0.3-2.3,0.4-4.5,2.1-6.2
		c1.5-1.5,3.1-2.1,5.2-2.1c2.9,0,5.2,1.4,6.8,4.4c2.7,4.8,5.2,10.9,6.8,16.3c3.5,12.1,4,25,1.6,37.4c-1.3,6.6-3.6,13.3-6.6,19.4
		c-2.3,4.6-3.3,6-5.1,6.9C35.22,11133.88,33.52,11134.08,31.82,11133.77z"/>
	<path class="st0" d="M6.52,11120.38c-2.5-0.3-4.6-1.8-5.7-4c-0.6-1.3-0.8-2.3-0.7-3.8s0.3-2.2,1.6-4.4c3.4-5.7,5-11.2,5-17.4
		c0-2.6-0.1-4.2-0.6-6.3c-0.8-4.1-2.4-8-4.7-11.6c-1-1.6-1.3-2.5-1.4-4.1c-0.1-1.6,0.2-2.7,0.9-3.9c1.9-3.5,6.3-4.8,9.9-3
		c1.3,0.7,2.3,1.6,3.4,3.5c2.6,4.1,4.7,9.1,5.9,13.9c2.3,9.3,1.8,19-1.6,28c-1.5,4.1-4.4,9.4-5.9,10.9
		C11.02,11119.88,8.72,11120.67,6.52,11120.38z"/>
</g>
</svg>
