<?xml version="1.0" encoding="utf-8"?>
<!-- Generator: Adobe Illustrator 24.2.3, SVG Export Plug-In . SVG Version: 6.00 Build 0)  -->
<svg version="1.1" id="Layer_1" xmlns="http://www.w3.org/2000/svg" xmlns:xlink="http://www.w3.org/1999/xlink" x="0px" y="0px"
	 viewBox="0 0 242.6 153" style="enable-background:new 0 0 242.6 153;" xml:space="preserve">
<style type="text/css">
	.st0{fill:#222222;}
	.st1{fill:url(#SVGID_1_);stroke:#303030;stroke-width:0.25;stroke-miterlimit:10;}
	.st2{fill:url(#SVGID_2_);stroke:#303030;stroke-width:0.25;stroke-miterlimit:10;}
	.st3{fill:url(#SVGID_3_);stroke:#303030;stroke-width:0.25;stroke-miterlimit:10;}
	.st4{fill:url(#SVGID_4_);stroke:#303030;stroke-width:0.25;stroke-miterlimit:10;}
	.st5{fill:url(#SVGID_5_);stroke:#303030;stroke-width:0.25;stroke-miterlimit:10;}
	.st6{fill:none;stroke:#303030;stroke-width:0.25;stroke-miterlimit:10;}
	.st7{fill:url(#SVGID_6_);stroke:#303030;stroke-width:0.25;stroke-miterlimit:10;}
	.st8{fill:url(#SVGID_7_);stroke:#303030;stroke-width:0.25;stroke-miterlimit:10;}
	.st9{fill:url(#SVGID_8_);stroke:#303030;stroke-width:0.25;stroke-miterlimit:10;}
	.st10{fill:url(#SVGID_9_);stroke:#303030;stroke-width:0.25;stroke-miterlimit:10;}
	.st11{fill:#FFFFFF;}
</style>
<g>
	<path class="st0" d="M8.5,152.5c-4.4,0-8-3.6-8-8V8.5c0-4.4,3.6-8,8-8h225.6c4.4,0,8,3.6,8,8v136c0,4.4-3.6,8-8,8H8.5L8.5,152.5z"
		/>
	<path class="st0" d="M234.1,0H8.5C3.8,0,0,3.8,0,8.5v136c0,4.7,3.8,8.5,8.5,8.5h225.6c4.7,0,8.5-3.8,8.5-8.5V8.5
		C242.6,3.8,238.8,0,234.1,0z M241.6,144.5c0,4.1-3.4,7.5-7.5,7.5H8.5c-4.1,0-7.5-3.4-7.5-7.5V8.5C1,4.4,4.4,1,8.5,1h225.6
		c4.1,0,7.5,3.4,7.5,7.5V144.5z"/>
</g>
<g>
	
		<linearGradient id="SVGID_1_" gradientUnits="userSpaceOnUse" x1="-632.1979" y1="10.4029" x2="-613.9444" y2="10.4029" gradientTransform="matrix(6.123234e-17 -1 -1 -6.123234e-17 42.7529 -572.2372)">
		<stop  offset="0" style="stop-color:#606060"/>
		<stop  offset="1" style="stop-color:#7F7F7F"/>
	</linearGradient>
	<path class="st1" d="M41.5,60H23.3c-1.6,0-2.9-1.3-2.9-2.9V44.6c0-1.6,1.3-2.9,2.9-2.9h18.2c0.1,0,0.3,0,0.4,0
		c1.4,0.2,2.4,1.4,2.4,2.8V57c0,1.4-1.1,2.6-2.4,2.8C41.8,60,41.6,60,41.5,60z"/>
	
		<linearGradient id="SVGID_2_" gradientUnits="userSpaceOnUse" x1="-627.2887" y1="17.8529" x2="-618.5185" y2="17.8529" gradientTransform="matrix(6.123234e-17 -1 -1 -6.123234e-17 42.7529 -572.2372)">
		<stop  offset="0" style="stop-color:#606060"/>
		<stop  offset="1" style="stop-color:#7F7F7F"/>
	</linearGradient>
	<path class="st2" d="M20.4,55.1h6.5c0.1,0,0.1,0,0.2,0c1.3-0.1,2.3-1.2,2.3-2.5v-1.9v-1.9c0-1.3-1-2.4-2.3-2.5c-0.1,0-0.1,0-0.2,0
		h-6.5"/>
	
		<linearGradient id="SVGID_3_" gradientUnits="userSpaceOnUse" x1="-632.1664" y1="15.6529" x2="-613.9664" y2="15.6529" gradientTransform="matrix(6.123234e-17 -1 -1 -6.123234e-17 42.7529 -572.2372)">
		<stop  offset="0" style="stop-color:#606060"/>
		<stop  offset="1" style="stop-color:#7F7F7F"/>
	</linearGradient>
	<polyline class="st3" points="27.1,59.9 27.1,55 27.1,50.7 27.1,46.3 27.1,41.7 	"/>
	
		<linearGradient id="SVGID_4_" gradientUnits="userSpaceOnUse" x1="-622.9372" y1="17.8529" x2="-622.9372" y2="17.8529" gradientTransform="matrix(6.123234e-17 -1 -1 -6.123234e-17 42.7529 -572.2372)">
		<stop  offset="0" style="stop-color:#606060"/>
		<stop  offset="1" style="stop-color:#7F7F7F"/>
	</linearGradient>
	<polyline class="st4" points="20.4,50.7 27.1,50.7 29.4,50.7 	"/>
	
		<linearGradient id="SVGID_5_" gradientUnits="userSpaceOnUse" x1="-629.3372" y1="22.3529" x2="-616.8372" y2="22.3529" gradientTransform="matrix(6.123234e-17 -1 -1 -6.123234e-17 42.7529 -572.2372)">
		<stop  offset="0" style="stop-color:#606060"/>
		<stop  offset="1" style="stop-color:#7F7F7F"/>
	</linearGradient>
	<polyline class="st5" points="20.4,57.1 20.4,55.1 20.4,50.7 20.4,46.3 20.4,44.6 	"/>
	<line class="st6" x1="27.1" y1="41.7" x2="22.8" y2="41.7"/>
	<line class="st6" x1="27.1" y1="59.9" x2="22.8" y2="59.9"/>
	
		<linearGradient id="SVGID_6_" gradientUnits="userSpaceOnUse" x1="-627.6239" y1="2.8529" x2="-618.8536" y2="2.8529" gradientTransform="matrix(6.123234e-17 -1 -1 -6.123234e-17 42.7529 -572.2372)">
		<stop  offset="0" style="stop-color:#606060"/>
		<stop  offset="1" style="stop-color:#7F7F7F"/>
	</linearGradient>
	<path class="st7" d="M44.4,46.6h-6.5c-0.1,0-0.1,0-0.2,0c-1.3,0.1-2.3,1.2-2.3,2.5V51v1.9c0,1.3,1,2.4,2.3,2.5c0.1,0,0.1,0,0.2,0
		h6.5"/>
	
		<linearGradient id="SVGID_7_" gradientUnits="userSpaceOnUse" x1="-632.1664" y1="5.0529" x2="-613.9664" y2="5.0529" gradientTransform="matrix(6.123234e-17 -1 -1 -6.123234e-17 42.7529 -572.2372)">
		<stop  offset="0" style="stop-color:#606060"/>
		<stop  offset="1" style="stop-color:#7F7F7F"/>
	</linearGradient>
	<polyline class="st8" points="37.7,41.7 37.7,46.6 37.7,51 37.7,55.4 37.7,59.9 	"/>
	
		<linearGradient id="SVGID_8_" gradientUnits="userSpaceOnUse" x1="-623.2372" y1="2.8529" x2="-623.2372" y2="2.8529" gradientTransform="matrix(6.123234e-17 -1 -1 -6.123234e-17 42.7529 -572.2372)">
		<stop  offset="0" style="stop-color:#606060"/>
		<stop  offset="1" style="stop-color:#7F7F7F"/>
	</linearGradient>
	<polyline class="st9" points="44.4,51 37.7,51 35.4,51 	"/>
	
		<linearGradient id="SVGID_9_" gradientUnits="userSpaceOnUse" x1="-629.3372" y1="-1.6471" x2="-616.8372" y2="-1.6471" gradientTransform="matrix(6.123234e-17 -1 -1 -6.123234e-17 42.7529 -572.2372)">
		<stop  offset="0" style="stop-color:#606060"/>
		<stop  offset="1" style="stop-color:#7F7F7F"/>
	</linearGradient>
	<polyline class="st10" points="44.4,44.6 44.4,46.6 44.4,51 44.4,55.4 44.4,57.1 	"/>
	<line class="st6" x1="37.7" y1="59.9" x2="41.9" y2="59.9"/>
	<line class="st6" x1="37.7" y1="41.7" x2="41.9" y2="41.7"/>
	<line class="st6" x1="35.5" y1="48.4" x2="29.3" y2="48.4"/>
	<line class="st6" x1="35.4" y1="53.5" x2="29.2" y2="53.5"/>
</g>
<g transform="translate(0.000000,1116.000000) scale(0.100000,-0.100000)">
	<path class="st11" d="M2212.6,11042.1c-2.5-0.7-4.7-2.9-5.3-5.5c-0.2-1-0.2-2.7,0.1-3.7c0.1-0.4,0.8-1.8,1.5-3
		c8.4-15.2,13-30.5,14.5-47.8c0.3-3.5,0.3-13.9,0.1-17.1c-0.7-8.4-1.8-14.8-3.6-21.7c-2.5-9.4-5.9-17.7-10.7-26.5
		c-1.6-3-1.9-3.8-1.9-5.4c0-3.2,1.8-5.8,4.8-7c0.8-0.3,1.2-0.4,2.5-0.4c1.7,0,2.5,0.2,3.8,0.9c1.7,1,2.8,2.5,5.9,8.6
		c7.9,15.3,12.4,31.5,14,49.6c0.3,3.6,0.3,15.7,0.1,19.1c-1.3,15.9-4.7,29.6-10.6,43.3c-1.3,3.1-4.3,9.1-5.9,11.8
		c-1.7,3-3,4.2-5.3,4.8C2215.4,11042.4,2213.6,11042.4,2212.6,11042.1z"/>
	<path class="st11" d="M2185.6,11028.5c-2.7-0.6-5-3.1-5.5-5.7c-0.4-2-0.1-3.4,1.1-5.6c4.4-8.1,7.1-14.9,9-22.6
		c1.7-6.9,2.5-12.7,2.6-20c0.1-4.6,0-7.4-0.5-11.6c-1.3-11.5-5-23.1-10.7-33.2c-1.2-2.1-1.5-2.9-1.6-4.3c-0.3-3.7,2.2-7,5.9-7.8
		c1.2-0.2,1.8-0.2,3,0c1.4,0.3,2.7,1,3.7,2s2.3,3.1,4.5,7.7c6.1,12.4,9.5,25.1,10.5,39.3c0.2,2.6,0.2,10.3,0,13.1
		c-0.9,14.1-4.5,27.4-10.7,39.8c-2.3,4.7-3.1,6-4.2,7.1C2190.7,11028.4,2188.1,11029.1,2185.6,11028.5z"/>
	<path class="st11" d="M2159.8,11016.1c-2-0.4-3.9-1.9-4.9-3.6c-1.3-2.5-1.3-4.8,0.1-7.4c0.4-0.7,1.2-2.3,1.8-3.5
		c6.6-13.5,8.2-29.2,4.4-43.9c-1.2-4.7-2.5-8.2-5.1-13.3c-1.7-3.5-1.9-3.9-2.1-4.9c-0.3-2.3,0.4-4.5,2.1-6.2
		c1.5-1.5,3.1-2.1,5.2-2.1c2.9,0,5.2,1.4,6.8,4.4c2.7,4.8,5.2,10.9,6.8,16.3c3.5,12.1,4,25,1.6,37.4c-1.3,6.6-3.6,13.3-6.6,19.4
		c-2.3,4.6-3.3,6-5.1,6.9C2163.2,11016.2,2161.5,11016.4,2159.8,11016.1z"/>
	<path class="st11" d="M2134.5,11002.7c-2.5-0.3-4.6-1.8-5.7-4c-0.6-1.3-0.8-2.3-0.7-3.8s0.3-2.2,1.6-4.4c3.4-5.7,5-11.2,5-17.4
		c0-2.6-0.1-4.2-0.6-6.3c-0.8-4.1-2.4-8-4.7-11.6c-1-1.6-1.3-2.5-1.4-4.1c-0.1-1.6,0.2-2.7,0.9-3.9c1.9-3.5,6.3-4.8,9.9-3
		c1.3,0.7,2.3,1.6,3.4,3.5c2.6,4.1,4.7,9.1,5.9,13.9c2.3,9.3,1.8,19-1.6,28c-1.5,4.1-4.4,9.4-5.9,10.9
		C2139,11002.2,2136.7,11003,2134.5,11002.7z"/>
</g>
</svg>
