<?xml version="1.0" encoding="utf-8"?>
<!-- Generator: Adobe Illustrator 24.2.3, SVG Export Plug-In . SVG Version: 6.00 Build 0)  -->
<svg version="1.1" id="Layer_1" xmlns="http://www.w3.org/2000/svg" xmlns:xlink="http://www.w3.org/1999/xlink" x="0px" y="0px"
	 viewBox="0 0 24.46 18.79" style="enable-background:new 0 0 24.46 18.79;" xml:space="preserve">
<style type="text/css">
	.st0{fill:url(#SVGID_1_);stroke:#313131;stroke-width:0.25;stroke-miterlimit:10;}
	.st1{fill:url(#SVGID_2_);stroke:#313131;stroke-width:0.25;stroke-miterlimit:10;}
	.st2{fill:url(#SVGID_3_);stroke:#313131;stroke-width:0.25;stroke-miterlimit:10;}
	.st3{fill:url(#SVGID_4_);stroke:#313131;stroke-width:0.25;stroke-miterlimit:10;}
	.st4{fill:url(#SVGID_5_);stroke:#313131;stroke-width:0.25;stroke-miterlimit:10;}
	.st5{fill:none;stroke:#313131;stroke-width:0.25;stroke-miterlimit:10;}
	.st6{fill:url(#SVGID_6_);stroke:#313131;stroke-width:0.25;stroke-miterlimit:10;}
	.st7{fill:url(#SVGID_7_);stroke:#313131;stroke-width:0.25;stroke-miterlimit:10;}
	.st8{fill:url(#SVGID_8_);stroke:#313131;stroke-width:0.25;stroke-miterlimit:10;}
	.st9{fill:url(#SVGID_9_);stroke:#313131;stroke-width:0.25;stroke-miterlimit:10;}
</style>
<g>
	
		<linearGradient id="SVGID_1_" gradientUnits="userSpaceOnUse" x1="-1462.3816" y1="862.7964" x2="-1444.1281" y2="862.7964" gradientTransform="matrix(6.123234e-17 -1 1 6.123234e-17 -850.6061 -1443.8496)">
		<stop  offset="0" style="stop-color:#626161"/>
		<stop  offset="1" style="stop-color:#7F8080"/>
	</linearGradient>
	<path class="st0" d="M21.34,18.57H3.14c-1.6,0-2.9-1.3-2.9-2.9V3.17c0-1.6,1.3-2.9,2.9-2.9h18.2c0.1,0,0.3,0,0.4,0
		c1.4,0.2,2.4,1.4,2.4,2.8v12.5c0,1.4-1.1,2.6-2.4,2.8C21.64,18.57,21.44,18.57,21.34,18.57z"/>
	
		<linearGradient id="SVGID_2_" gradientUnits="userSpaceOnUse" x1="-1457.4724" y1="855.3464" x2="-1448.7021" y2="855.3464" gradientTransform="matrix(6.123234e-17 -1 1 6.123234e-17 -850.6061 -1443.8496)">
		<stop  offset="0" style="stop-color:#626161"/>
		<stop  offset="1" style="stop-color:#7F8080"/>
	</linearGradient>
	<path class="st1" d="M0.24,13.67h6.5c0.1,0,0.1,0,0.2,0c1.3-0.1,2.3-1.2,2.3-2.5v-1.9v-1.9c0-1.3-1-2.4-2.3-2.5c-0.1,0-0.1,0-0.2,0
		h-6.5"/>
	
		<linearGradient id="SVGID_3_" gradientUnits="userSpaceOnUse" x1="-1462.3501" y1="857.5464" x2="-1444.15" y2="857.5464" gradientTransform="matrix(6.123234e-17 -1 1 6.123234e-17 -850.6061 -1443.8496)">
		<stop  offset="0" style="stop-color:#626161"/>
		<stop  offset="1" style="stop-color:#7F8080"/>
	</linearGradient>
	<polyline class="st2" points="6.94,18.47 6.94,13.57 6.94,9.27 6.94,4.87 6.94,0.27 	"/>
	
		<linearGradient id="SVGID_4_" gradientUnits="userSpaceOnUse" x1="-1453.1208" y1="855.3464" x2="-1453.1208" y2="855.3464" gradientTransform="matrix(6.123234e-17 -1 1 6.123234e-17 -850.6061 -1443.8496)">
		<stop  offset="0" style="stop-color:#626161"/>
		<stop  offset="1" style="stop-color:#7F8080"/>
	</linearGradient>
	<polyline class="st3" points="0.24,9.27 6.94,9.27 9.24,9.27 	"/>
	
		<linearGradient id="SVGID_5_" gradientUnits="userSpaceOnUse" x1="-1459.5209" y1="850.8464" x2="-1447.0209" y2="850.8464" gradientTransform="matrix(6.123234e-17 -1 1 6.123234e-17 -850.6061 -1443.8496)">
		<stop  offset="0" style="stop-color:#626161"/>
		<stop  offset="1" style="stop-color:#7F8080"/>
	</linearGradient>
	<polyline class="st4" points="0.24,15.67 0.24,13.67 0.24,9.27 0.24,4.87 0.24,3.17 	"/>
	<line class="st5" x1="6.94" y1="0.27" x2="2.64" y2="0.27"/>
	<line class="st5" x1="6.94" y1="18.47" x2="2.64" y2="18.47"/>
	
		<linearGradient id="SVGID_6_" gradientUnits="userSpaceOnUse" x1="-1457.8076" y1="870.3464" x2="-1449.0372" y2="870.3464" gradientTransform="matrix(6.123234e-17 -1 1 6.123234e-17 -850.6061 -1443.8496)">
		<stop  offset="0" style="stop-color:#626161"/>
		<stop  offset="1" style="stop-color:#7F8080"/>
	</linearGradient>
	<path class="st6" d="M24.24,5.17h-6.5c-0.1,0-0.1,0-0.2,0c-1.3,0.1-2.3,1.2-2.3,2.5v1.9v1.9c0,1.3,1,2.4,2.3,2.5c0.1,0,0.1,0,0.2,0
		h6.5"/>
	
		<linearGradient id="SVGID_7_" gradientUnits="userSpaceOnUse" x1="-1462.3501" y1="868.1464" x2="-1444.15" y2="868.1464" gradientTransform="matrix(6.123234e-17 -1 1 6.123234e-17 -850.6061 -1443.8496)">
		<stop  offset="0" style="stop-color:#626161"/>
		<stop  offset="1" style="stop-color:#7F8080"/>
	</linearGradient>
	<polyline class="st7" points="17.54,0.27 17.54,5.17 17.54,9.57 17.54,13.97 17.54,18.47 	"/>
	
		<linearGradient id="SVGID_8_" gradientUnits="userSpaceOnUse" x1="-1453.4209" y1="870.3464" x2="-1453.4209" y2="870.3464" gradientTransform="matrix(6.123234e-17 -1 1 6.123234e-17 -850.6061 -1443.8496)">
		<stop  offset="0" style="stop-color:#626161"/>
		<stop  offset="1" style="stop-color:#7F8080"/>
	</linearGradient>
	<polyline class="st8" points="24.24,9.57 17.54,9.57 15.24,9.57 	"/>
	
		<linearGradient id="SVGID_9_" gradientUnits="userSpaceOnUse" x1="-1459.5209" y1="874.8464" x2="-1447.0209" y2="874.8464" gradientTransform="matrix(6.123234e-17 -1 1 6.123234e-17 -850.6061 -1443.8496)">
		<stop  offset="0" style="stop-color:#626161"/>
		<stop  offset="1" style="stop-color:#7F8080"/>
	</linearGradient>
	<polyline class="st9" points="24.24,3.17 24.24,5.17 24.24,9.57 24.24,13.97 24.24,15.67 	"/>
	<line class="st5" x1="17.54" y1="18.47" x2="21.74" y2="18.47"/>
	<line class="st5" x1="17.54" y1="0.27" x2="21.74" y2="0.27"/>
	<line class="st5" x1="15.34" y1="6.97" x2="9.14" y2="6.97"/>
	<line class="st5" x1="15.24" y1="12.07" x2="9.04" y2="12.07"/>
</g>
</svg>
